<svg width="207" height="65" viewBox="0 0 207 65" fill="none" xmlns="http://www.w3.org/2000/svg">
<path fill-rule="evenodd" clip-rule="evenodd" d="M26.423 0.206147C26.0472 0.555451 25.8239 0.956292 25.7967 1.3285C25.7695 1.66635 25.7368 1.71216 25.2031 2.02138C24.8873 2.20463 24.0051 2.73717 23.2372 3.20673C21.6579 4.17447 21.7178 4.14011 20.1875 5.06205C19.3707 5.56024 18.5593 6.0527 17.7478 6.55089C15.0195 8.22297 11.7085 10.2214 11.2129 10.502C10.7827 10.7425 10.652 10.7769 10.4559 10.7082C10.0584 10.5593 9.3831 10.9945 9.29052 11.4583C9.24151 11.6817 8.95833 11.8878 7.16666 12.9758C6.04483 13.6572 4.91755 14.3444 3.79572 15.0315C1.97682 16.1482 2.15653 16.0737 1.64463 15.9363C1.24164 15.8275 1.18174 15.8332 0.82776 16.0336C0.261397 16.3486 0 16.7494 0 17.3049C0 17.7286 0.027229 17.7859 0.435663 18.1867C0.675279 18.4158 0.909447 18.6105 0.958459 18.6105C1.01836 18.6105 1.05104 22.9739 1.05104 32.6743V46.7323L0.784193 46.8526C0.637158 46.9156 0.402989 47.116 0.261397 47.2935C0.0490122 47.5684 0 47.7058 0 48.1066C0 48.3758 0.0326748 48.5877 0.0762411 48.5877C0.114362 48.5877 0.196049 48.6907 0.255952 48.8053C0.321301 48.9255 0.528242 49.1202 0.718845 49.229C0.99658 49.3951 1.14362 49.4237 1.47036 49.3779C1.84612 49.3263 1.9387 49.3607 2.57586 49.7501C3.4254 50.2655 6.52406 52.1895 7.06319 52.5331C7.43895 52.7736 9.41577 53.999 12.1223 55.6711C12.8194 56.1006 14.6056 57.2057 16.0923 58.1277C17.579 59.0496 20.1276 60.6301 21.7559 61.6322C25.1105 63.7051 25.6932 64.0945 26.2487 64.6213C26.6027 64.9592 26.6844 64.9992 27.1092 64.9992C27.5666 65.005 27.5775 64.9935 28.1112 64.4152C28.5033 63.98 28.9335 63.6478 29.734 63.1611C30.3331 62.8003 31.3351 62.1933 31.9614 61.8154C33.3446 60.9736 33.2738 61.0137 35.0981 59.9143C35.915 59.4218 37.9354 58.1964 39.5909 57.1886C41.241 56.1807 43.147 55.024 43.8168 54.6175C44.4867 54.2109 45.5867 53.5409 46.2566 53.1286C50.7602 50.3628 52.236 49.5096 52.4757 49.5096C53.2217 49.5096 53.8861 48.8339 53.8861 48.0837C53.8861 47.6829 53.7717 47.4309 53.4396 47.116L53.189 46.8755V32.7086L53.1945 18.5475L53.4069 18.3356C53.6846 18.0608 53.8861 17.5969 53.8861 17.2362C53.8861 16.3715 52.9658 15.6786 52.1816 15.9535C51.8984 16.0508 51.8385 16.0336 51.332 15.6958C51.038 15.4954 50.635 15.2377 50.4444 15.1232C50.2538 15.0086 49.976 14.8368 49.8344 14.7452C49.4151 14.4704 46.4145 12.5692 45.5922 12.0596C44.9931 11.6874 44.8134 11.5213 44.6773 11.235C44.4431 10.7139 44.1273 10.5078 43.5772 10.4963C43.1525 10.4906 42.9945 10.4104 41.4643 9.45412C40.5548 8.88149 39.6671 8.32031 39.5038 8.20579C39.2533 8.03973 37.9898 7.23804 36.2581 6.15005C36.1274 6.06988 35.3051 5.54878 34.4283 4.99333C33.8456 4.62685 33.2629 4.26037 32.6802 3.89388C31.9505 3.44723 29.3964 1.81524 28.928 1.50029C28.4978 1.20825 28.3399 1.04791 28.3399 0.899029C28.3399 0.784503 28.1874 0.555451 27.975 0.349304C27.6428 0.0286315 27.572 0 27.1255 0C26.7497 0 26.5918 0.0515363 26.423 0.206147ZM27.9042 2.3306C27.9042 2.51957 28.2146 2.92614 30.1261 5.21666C30.6544 5.85228 31.1717 6.47072 31.2697 6.5967C31.3732 6.72268 31.7871 7.22086 32.1901 7.7076C33.1376 8.85286 33.7421 9.58583 34.107 10.0382C34.2704 10.2386 34.4174 10.4219 34.4446 10.4505C34.4664 10.4734 34.7442 10.8055 35.0546 11.1835C35.365 11.5614 35.659 11.9164 35.7081 11.968C35.8388 12.1226 36.6611 13.119 36.9061 13.4224C37.0967 13.663 37.1457 13.6801 37.3799 13.5942C37.6794 13.4797 38.1042 13.6286 38.4364 13.9607L38.6379 14.1554L39.3513 13.7603C39.9884 13.411 40.6256 13.0674 41.2682 12.7238L42.4663 12.0768V11.7389C42.4663 11.5041 42.4064 11.3381 42.2702 11.2064C42.1069 11.046 35.964 7.11779 32.7455 5.11359C31.0029 4.02559 29.4182 3.02921 28.8518 2.66273C28.3562 2.34206 27.9042 2.18172 27.9042 2.3306ZM25.9819 2.73145C25.6769 2.90323 19.6103 6.56807 17.6171 7.78777C16.4027 8.53219 13.7452 10.147 13.4729 10.3016C13.3803 10.3589 12.8739 10.6738 12.3565 11.0002C11.3327 11.653 11.2074 11.8305 11.4743 12.26C11.6213 12.4948 13.0154 14.184 13.9957 15.3121C14.2353 15.5927 14.5512 15.9592 14.6982 16.1367C14.8452 16.3142 15.4552 17.0357 16.0487 17.7458L18.6518 20.838C19.485 21.8344 20.1767 22.6418 20.193 22.6418C20.2202 22.6418 21.1133 19.8015 23.7164 11.4583C24.6858 8.35467 25.7096 5.10213 25.9928 4.22028C26.2759 3.33843 26.5101 2.61119 26.5101 2.59401C26.5101 2.51385 26.2542 2.58256 25.9819 2.73145ZM26.9893 2.86315C26.9294 3.03494 25.6279 7.18651 24.2392 11.6416C23.4714 14.1153 22.6926 16.5834 21.9139 19.0514L20.8356 22.4757L21.2059 22.825L21.5817 23.1801L26.2052 20.7178C28.7483 19.3663 32.1138 17.574 33.6877 16.7437C35.2669 15.9134 36.5685 15.2148 36.5903 15.1919C36.6121 15.169 36.5848 15.0373 36.5249 14.9056C36.4432 14.7166 36.4432 14.6192 36.5358 14.4417C36.672 14.1726 36.5794 14.0237 35.4467 12.6952C35.06 12.2428 34.3738 11.4182 33.9218 10.8628C33.4698 10.3073 32.9416 9.66599 32.751 9.43694C32.3153 8.9273 31.9232 8.45202 31.3514 7.74768C31.1064 7.44992 30.1697 6.32184 29.2657 5.23384C28.3617 4.14584 27.5394 3.13801 27.4413 3.00058C27.2507 2.73144 27.0547 2.67418 26.9893 2.86315ZM69.5809 10.6051C67.8056 10.7941 66.3788 12.1054 65.9703 13.9435C65.7743 14.8025 65.7688 37.2095 65.9649 38.1715C66.3243 39.9696 67.4189 41.1091 69.0145 41.3439C69.8205 41.4641 88.0911 41.4641 89.1694 41.3496C92.2789 41.0003 94.5335 38.9159 95.3613 35.6119C95.5628 34.8045 95.59 34.5239 95.59 33.1438C95.59 31.8382 95.5628 31.4603 95.4048 30.8476C94.9909 29.2156 94.1469 27.8814 92.8725 26.8506C92.3171 26.3982 91.1462 25.7111 90.6398 25.5336C90.4818 25.4763 90.4927 25.4477 90.7705 25.2301C91.5982 24.583 92.4096 23.5122 92.8889 22.4356C93.4334 21.2102 93.6894 19.1717 93.4825 17.6542C93.0795 14.6765 90.863 11.8706 88.1946 10.9544C87.0564 10.565 86.4519 10.5421 77.9565 10.5536C73.5182 10.565 69.7497 10.5822 69.5809 10.6051ZM154.595 10.6681C153.566 10.9601 152.695 11.9794 152.422 13.2163C152.368 13.4683 152.335 18.4788 152.335 26.9308C152.33 38.0455 152.351 40.3017 152.449 40.5479C152.842 41.5099 154.083 41.7963 154.802 41.0862C155.325 40.5708 155.292 41.5271 155.298 27.0969C155.298 19.269 155.33 13.8405 155.379 13.8405C155.466 13.8405 156.599 15.5068 158.119 17.8775C158.679 18.7594 159.431 19.9161 159.785 20.4429C160.172 21.0212 160.558 21.5996 160.934 22.1837C161.849 23.5924 164.986 28.3967 167.371 32.0387C168.656 34.0085 170.045 36.133 170.453 36.7628C172.544 40.0039 173.067 40.6396 173.998 41.1206C174.472 41.3668 174.603 41.3954 175.393 41.3897C176.128 41.384 176.324 41.3553 176.645 41.1778C177.457 40.7254 178.072 39.9238 178.301 39.0076C178.361 38.7613 178.399 34.1975 178.41 25.2129C178.431 12.93 178.42 11.7561 178.29 11.4927C177.99 10.8914 177.261 10.4677 176.716 10.5822C176.367 10.6509 175.812 11.0918 175.583 11.4812C175.404 11.779 175.404 11.8477 175.431 20.3971C175.463 31.3801 175.376 38.3261 175.207 38.2574C175.055 38.1944 174.173 36.9346 172.882 34.9247C172.316 34.0429 171.537 32.8518 171.15 32.2677C170.769 31.6893 170.241 30.8877 169.985 30.4811C169.724 30.0803 169.359 29.5248 169.174 29.2442C168.988 28.9694 168.487 28.202 168.063 27.5435C166.418 25.0125 165.263 23.2431 164.888 22.6819C164.67 22.3612 164.071 21.4507 163.548 20.6548C162.72 19.3835 161.893 18.1123 161.065 16.8468C160.215 15.5469 159.208 14.0008 158.827 13.411C157.634 11.5729 156.91 10.9029 155.81 10.6395C155.325 10.5192 155.085 10.5249 154.595 10.6681ZM115.925 10.943C115.565 11.109 115.129 11.653 115.015 12.0768C114.895 12.5406 114.89 33.6764 115.015 35.0392C115.119 36.2131 115.342 37.032 115.81 37.9539C116.774 39.855 118.495 41.2408 120.303 41.5787C120.858 41.6817 122.754 41.7104 130.568 41.7104C139.957 41.7161 140.164 41.7104 140.512 41.5329C141.629 40.9602 141.623 39.3111 140.501 38.727C140.18 38.5552 139.799 38.5495 130.617 38.5437C123.26 38.538 120.984 38.5094 120.679 38.4235C119.568 38.0971 118.642 37.158 118.185 35.8924C118.027 35.4515 118.021 34.9304 117.978 23.6439L117.934 11.8534L117.684 11.5099C117.253 10.9143 116.507 10.6795 115.925 10.943ZM146.416 10.9143C146.029 11.0747 145.702 11.3839 145.528 11.7389C145.359 12.0882 145.354 12.3287 145.354 26.2322V40.3704L145.539 40.777C145.757 41.2408 146.203 41.5787 146.704 41.6646C147.156 41.739 147.723 41.447 148.098 40.9488L148.365 40.5995L148.387 26.507C148.409 15.9993 148.387 12.323 148.311 12.031C148.093 11.1949 147.118 10.6166 146.416 10.9143ZM183.316 10.9888C183.12 11.0861 182.848 11.3209 182.706 11.5099L182.456 11.8534L182.434 26.0718C182.407 42.0139 182.358 40.8285 183.039 41.3439C183.719 41.865 184.498 41.7562 185.086 41.0518C185.353 40.7312 185.358 40.6911 185.418 39.5916C185.446 38.9675 185.462 35.8924 185.44 32.7544C185.424 29.6107 185.418 27.0453 185.424 27.0453C185.435 27.0453 185.691 27.303 186.001 27.6179C186.311 27.9329 187.254 28.7059 188.103 29.3358C190.788 31.3286 191.61 31.9298 192.525 32.5941C193.01 32.9434 193.603 33.3786 193.838 33.5561C194.072 33.7279 194.567 34.0944 194.943 34.3635C195.313 34.6327 196.74 35.6634 198.107 36.6598C205.393 41.9566 204.822 41.5615 205.355 41.6703C205.688 41.7333 206.21 41.5558 206.504 41.2752C206.777 41.0175 207 40.462 207 40.0555C207 39.3626 206.728 39.0591 204.909 37.7535C204.451 37.4214 202.725 36.173 201.075 34.9762C199.795 34.0486 198.515 33.1209 197.236 32.1933C196.522 31.6779 195.809 31.1568 195.101 30.6357C194.382 30.1032 193.478 29.4446 193.091 29.164C192.71 28.8892 192.046 28.391 191.61 28.0646C191.038 27.6294 190.461 27.1999 189.884 26.7762C189.018 26.1406 188.953 26.0718 189.1 25.9573C190.134 25.1556 196.179 20.8495 201.728 16.9613C204.125 15.2778 206.205 13.8061 206.346 13.6801C207.332 12.8326 207.169 11.4583 206.02 10.9601C205.845 10.88 205.611 10.817 205.502 10.817C205.04 10.8227 204.86 10.943 197.061 16.4574C188.109 22.7907 186.627 23.8787 185.881 24.646L185.38 25.1556L185.402 18.5532L185.418 11.9451L185.184 11.5843C184.732 10.9029 183.981 10.6624 183.316 10.9888ZM44.3778 12.7009C44.3124 12.7868 44.1654 12.8899 44.051 12.9357L43.8386 13.0216L43.8985 14.8769C43.9312 15.8962 43.9966 17.3507 44.0401 18.1066C44.0837 18.8624 44.1218 19.8817 44.1218 20.3799C44.1218 21.1472 44.1436 21.2789 44.2743 21.3247C44.6446 21.4507 44.857 21.6053 45.0095 21.863C45.2001 22.1951 45.2164 22.6361 45.0421 22.8766C44.8788 23.1113 44.9223 23.1858 46.2511 24.7491C47.8685 26.6617 51.49 31.0537 52.0291 31.7523C52.1979 31.9699 52.2524 31.9012 52.2524 31.4717C52.2469 31.2828 52.2415 28.3166 52.2415 24.8865L52.2306 18.6448L51.8439 18.3413C51.4028 17.9863 51.2395 17.6485 51.2885 17.1846L51.3266 16.8582L49.927 15.9764C48.9195 15.3465 47.9175 14.7109 46.9155 14.0695C44.3669 12.4547 44.5139 12.5291 44.3778 12.7009ZM40.8434 13.6916C39.7488 14.2642 38.7523 14.8139 38.6379 14.9113C38.4527 15.0716 38.4418 15.1174 38.5453 15.3121C38.6488 15.5297 39.1934 16.2283 39.8577 17.0071C40.032 17.2075 40.3098 17.5339 40.4731 17.7286C40.7291 18.0264 40.8162 18.0779 41.0068 18.0264C41.2192 17.9691 41.2845 17.8202 41.8128 16.1081C42.1286 15.0888 42.5099 13.9092 42.6514 13.4912C42.7985 13.0731 42.9019 12.7124 42.8802 12.6895C42.8584 12.6666 41.9435 13.119 40.8434 13.6916ZM9.0618 13.0102C8.62069 13.2564 5.54382 15.1003 5.23341 15.3064C5.16261 15.3522 4.54179 15.7244 3.86107 16.1367L2.61943 16.8754V17.2419C2.61943 17.6485 2.46694 18.0149 2.18921 18.2784L2.0095 18.4559V26.0146C2.0095 30.1661 2.04217 33.5561 2.08029 33.5389C2.30902 33.4416 10.4396 29.1125 10.5322 29.0381C10.5921 28.9865 10.6411 28.7804 10.6411 28.5742C10.6411 28.3223 10.701 28.1333 10.8262 27.9959L11.0114 27.784L10.8262 24.5486C10.5213 19.2919 10.3797 16.8983 10.2871 15.5183C10.2435 14.8025 10.2054 13.9722 10.2054 13.6687C10.2054 13.1877 10.1782 13.1018 9.97669 12.93C9.67717 12.6895 9.6445 12.6895 9.0618 13.0102ZM42.6024 15.3522C42.1777 16.7151 41.8182 17.8775 41.8073 17.9405C41.7965 18.0035 41.8618 18.1466 41.9598 18.2612C42.0578 18.3757 42.194 18.5933 42.2648 18.7422C42.39 18.9884 42.3846 19.0399 42.2485 19.3091C42.1668 19.4694 42.1123 19.6412 42.1286 19.6927C42.2212 19.9676 43.5391 21.4507 43.6861 21.4507C43.8005 21.4507 43.7951 21.1701 43.5228 15.7645L43.3812 12.8784L42.6024 15.3522ZM11.202 14.184C11.2292 14.5734 11.3327 16.32 11.4307 18.0608C11.5233 19.8015 11.6594 22.1322 11.7302 23.2373C11.7956 24.3482 11.8827 25.7626 11.9154 26.3868L11.9753 27.5149L12.2748 27.7325C12.46 27.8642 12.6342 27.9214 12.7214 27.8814C12.7976 27.847 13.4511 27.5034 14.17 27.1198C14.8888 26.7361 16.3428 25.963 17.3993 25.4019C18.4503 24.8407 19.3271 24.3482 19.3435 24.2967C19.3598 24.2509 19.3053 24.0848 19.2291 23.9245C19.0929 23.6553 19.0984 23.621 19.2345 23.4664C19.3162 23.369 19.3598 23.2373 19.3326 23.1743C19.2944 23.0713 18.5756 22.1951 15.7928 18.8796C13.4783 16.1195 11.2292 13.474 11.1911 13.474C11.1693 13.474 11.1748 13.7947 11.202 14.184ZM69.4502 13.8347C69.3576 13.8806 69.1997 14.0008 69.1017 14.1153C68.9328 14.3158 68.9274 14.4646 68.9056 25.9745C68.8893 34.5468 68.911 37.702 68.9818 37.8852C69.0417 38.0341 69.1779 38.1715 69.3086 38.2059C69.4393 38.246 73.894 38.2746 79.2199 38.2689C89.8066 38.2574 89.3872 38.2803 90.4165 37.7306C91.3477 37.2324 92.0557 36.236 92.377 34.9762C92.7201 33.642 92.6329 31.7237 92.1973 30.7502C91.6146 29.4618 90.3076 28.5914 88.1238 28.0417C86.0163 27.5149 85.4172 27.2171 85.1068 26.5471C84.889 26.0718 84.8836 25.6424 85.0959 25.1671C85.39 24.4914 85.7984 24.2051 87.3342 23.5809C88.4015 23.1514 89.3654 22.4872 89.763 21.9203C90.1605 21.3419 90.4274 20.4028 90.4873 19.3263C90.5472 18.1925 90.4219 17.4938 89.9699 16.5032C89.36 15.169 88.2872 14.247 86.9312 13.8977C86.4247 13.766 85.4064 13.7488 77.9946 13.7546C73.3929 13.7603 69.5482 13.7947 69.4502 13.8347ZM33.6332 17.4996C24.0595 22.5788 21.6579 23.8672 21.549 23.976C21.4401 24.0848 21.4945 24.1879 21.8975 24.6975C22.3332 25.2473 24.8274 28.2249 24.9417 28.328C24.969 28.3509 26.1834 29.7997 27.6428 31.5347C29.1023 33.2755 30.4202 34.8445 30.5727 35.0221C30.7252 35.1996 31.5039 36.1272 32.3044 37.0835C33.105 38.0398 33.8184 38.8587 33.8892 38.9045C33.9654 38.9446 34.0689 38.9331 34.1451 38.8644C34.2214 38.8014 34.3956 38.7785 34.5699 38.8071L34.8694 38.8587L35.6482 36.3219C36.0784 34.9247 36.6338 33.1037 36.8843 32.2677C37.1349 31.4374 37.4453 30.4067 37.5814 29.9772C37.7176 29.5477 38.1096 28.2707 38.4527 27.1369C38.8339 25.8829 39.2151 24.6288 39.6018 23.3748C39.8904 22.4414 40.2281 21.3534 40.3479 20.9468C40.4731 20.546 40.5875 20.168 40.6093 20.1108C40.6311 20.0535 40.5439 19.8932 40.4187 19.75C40.1409 19.4351 40.0538 19.0972 40.1899 18.8682C40.3315 18.6219 40.2444 18.4788 39.0409 17.0415L38.0007 15.7989L37.4398 15.7874C36.8843 15.7817 36.8789 15.7817 33.6332 17.4996ZM40.9524 20.8323C40.8217 21.2503 40.4187 22.5559 40.0592 23.7412C39.2751 26.3181 38.3329 29.416 37.7557 31.3057C37.5215 32.0616 37.0314 33.6706 36.6665 34.8846C36.2962 36.0929 35.8496 37.5588 35.6699 38.1372C35.4085 38.9732 35.3704 39.208 35.4576 39.2652C35.5283 39.3111 36.5304 39.0076 37.9517 38.5151C42.2648 37.0205 43.294 36.6712 43.4084 36.6712C43.4683 36.6712 43.5936 36.488 43.6861 36.2647C43.7951 35.9955 43.9475 35.8066 44.1273 35.7035L44.405 35.5546L44.3505 34.5296C44.2906 33.4588 44.0782 28.4368 43.9911 26.0833C43.9094 23.7928 43.8767 23.5637 43.6426 23.4664C43.5337 23.4263 43.3376 23.2431 43.2069 23.0598C43.0054 22.7849 42.9782 22.6819 43.0272 22.344C43.0817 21.9546 43.0762 21.9432 42.341 21.0728C41.6766 20.2768 41.4588 20.0764 41.2519 20.0764C41.2138 20.0764 41.0776 20.4143 40.9524 20.8323ZM44.2961 24.0333C44.2961 24.3024 44.356 25.6596 44.4213 27.0453C44.4921 28.4311 44.5901 30.8247 44.6446 32.3593C44.6991 33.8997 44.759 35.2397 44.7807 35.3427C44.8025 35.4515 44.9713 35.6004 45.2055 35.7149L45.5976 35.9039L47.2368 35.337C48.2497 34.9877 49.2572 34.6384 50.2701 34.2948C51.8875 33.7508 52.3177 33.5676 52.3177 33.4244C52.3177 33.1324 52.0727 32.806 50.3572 30.7502C49.1918 29.3587 48.168 28.1161 47.9066 27.7783C47.7705 27.6008 47.3784 27.1255 47.0353 26.7246C46.6922 26.3181 46.2947 25.8428 46.1476 25.671C45.0803 24.3654 44.4322 23.6038 44.3723 23.5752C44.3287 23.558 44.2961 23.7641 44.2961 24.0333ZM103.301 24.0676C98.8956 24.1879 98.8629 24.1879 98.5688 24.3998C98.2366 24.6403 97.9208 25.2244 97.9208 25.608C97.9208 25.963 98.1168 26.3238 98.5035 26.6788L98.8302 26.9823L101.624 26.9193C110.931 26.7189 110.479 26.7418 110.833 26.4269C111.181 26.1177 111.35 25.7569 111.35 25.3045C111.35 24.8292 111.187 24.4971 110.811 24.1993C110.533 23.9817 110.468 23.9703 109.128 23.9588C108.36 23.9531 105.735 24.0047 103.301 24.0676ZM70.6755 24.3769C69.6408 24.8808 69.3903 26.1005 70.1527 26.9022C70.3161 27.0797 70.6101 27.2629 70.8007 27.3202C71.0349 27.3832 73.0063 27.4061 76.8565 27.3889C82.4929 27.366 82.5637 27.3603 82.8087 27.1713C83.7182 26.4612 83.7999 25.3675 82.9939 24.6002C82.5854 24.2108 82.4493 24.1993 76.6114 24.2051C71.3562 24.2051 71.0022 24.2165 70.6755 24.3769ZM20.5415 24.9209C20.5197 24.9667 20.3999 24.9838 20.2856 24.9609C20.0786 24.9209 20.0514 24.9896 18.9677 28.4769C17.4864 33.2698 16.3809 36.8029 14.7744 41.8822L13.4348 46.1368L13.6254 46.3945C13.7343 46.5376 13.8868 46.6579 13.963 46.6579C14.0393 46.6636 14.769 46.4346 15.575 46.1597C16.3864 45.8791 18.2652 45.2378 19.7519 44.7281C30.5073 41.0633 33.399 40.0555 33.399 39.9868C33.399 39.9238 32.5658 38.7957 32.446 38.6869C32.4134 38.664 31.9777 38.1486 31.4767 37.5416C30.9757 36.9346 29.6251 35.3255 28.4815 33.9684C27.3324 32.6056 26.0091 31.0365 25.5462 30.4811C25.0779 29.9256 24.2065 28.8949 23.613 28.1906C23.0194 27.4862 22.4149 26.7647 22.2787 26.5872C21.8322 26.0318 20.7267 24.8464 20.6559 24.8464C20.6232 24.8464 20.5688 24.8808 20.5415 24.9209ZM16.0487 26.8506C13.01 28.454 12.7649 28.6029 12.6288 28.9064C12.5417 29.0839 12.3892 29.2958 12.2857 29.3702C12.0733 29.5248 12.0733 29.6222 12.3456 33.831C12.411 34.9132 12.5907 37.9482 12.7323 40.5651C12.8793 43.1878 13.01 45.3981 13.0209 45.4725C13.0372 45.547 13.206 45.0946 13.4075 44.4647C13.6036 43.8348 14.7145 40.2845 15.8745 36.5796C17.0344 32.8747 18.3088 28.7918 18.7117 27.5149C19.1147 26.2322 19.4469 25.1728 19.4469 25.1556C19.4469 25.064 19.1202 25.2301 16.0487 26.8506ZM7.36816 31.4488C3.28926 33.6306 2.20555 34.1975 2.09118 34.1975C1.89514 34.1975 2.06395 34.4437 2.90805 35.4114C3.67591 36.2933 6.4097 39.4828 7.53698 40.8056C8.79495 42.283 9.30686 42.8843 10.1618 43.8635C10.6901 44.4762 11.3218 45.2149 11.5723 45.5184C11.8228 45.8161 12.0461 46.0452 12.0679 46.0223C12.0897 45.9936 12.0733 45.5413 12.0352 45.0144C11.9916 44.4819 11.8718 42.6266 11.7738 40.8915C11.6431 38.6812 11.5124 36.4765 11.3763 34.2662C11.2619 32.365 11.1639 30.5155 11.1639 30.1661C11.1639 29.7023 11.1312 29.5248 11.055 29.5305C10.9951 29.5363 9.33409 30.4009 7.36816 31.4488ZM48.9849 35.6978C45.8481 36.7858 45.7773 36.8144 45.5649 37.1408C45.4506 37.324 45.2491 37.5015 45.1293 37.5359C44.8679 37.6046 44.8624 37.6332 44.9931 40.2444C45.0367 41.1778 45.1184 43.016 45.1674 44.3273C45.2164 45.6386 45.2981 47.5569 45.3417 48.5877C45.3852 49.6241 45.4288 50.8954 45.4397 51.4107C45.4506 52.0578 45.4833 52.3498 45.5541 52.3498C45.6521 52.3498 50.88 49.2004 51.2231 48.9312C51.3756 48.8167 51.3865 48.7652 51.2939 48.456C51.1469 47.9406 51.3756 47.3451 51.8657 47.0072L52.2306 46.7438V40.651C52.2306 37.3011 52.2197 34.5639 52.2088 34.5697C52.1979 34.5754 50.7493 35.085 48.9849 35.6978ZM2.0095 41.0175V46.8698L2.32535 47.2363C2.61398 47.5741 2.63576 47.6428 2.59764 48.0494C2.57586 48.2899 2.58131 48.5247 2.60853 48.5648C2.64121 48.6048 2.95706 48.8224 3.31649 49.04C3.91008 49.4065 4.50912 49.7787 5.10271 50.1452C5.72897 50.5346 6.82358 51.216 7.54242 51.657C8.26671 52.1036 9.69896 52.9912 10.7282 53.6325C13.816 55.5508 22.3876 60.8591 23.7654 61.7009C24.1957 61.9643 24.7457 62.3193 24.9853 62.4797C25.5843 62.8862 25.8403 63.0237 25.8022 62.9091C25.7804 62.8576 25.214 62.1819 24.5387 61.4088C23.8635 60.6358 22.8832 59.4963 22.3604 58.8778C19.9697 56.0548 16.6206 52.138 15.9507 51.3878C15.7274 51.1359 15.0631 50.3571 14.4749 49.6585C13.4947 48.4903 13.3912 48.393 13.1788 48.456C12.4872 48.6564 12.0298 48.4674 11.6921 47.8432C11.4797 47.4481 11.4634 47.1217 11.6431 46.761L11.7684 46.4976L10.1346 44.5792C8.44098 42.5922 7.34093 41.3038 6.19731 39.9696C5.59827 39.2767 5.00468 38.5838 4.41654 37.8852C3.80116 37.1637 3.01152 36.2589 2.65755 35.8695L2.01494 35.1595L2.0095 41.0175ZM43.5119 37.5874C43.3921 37.6332 42.2376 38.0226 40.9415 38.4636C35.6373 40.2559 35.6264 40.2616 35.5556 40.6625C35.512 40.903 35.6645 41.0919 38.2567 44.167C39.0409 45.0946 39.8196 46.0223 40.5984 46.9499C41.143 47.6085 41.8672 48.4674 42.194 48.8511C42.6569 49.3893 43.1143 49.9333 43.5663 50.4773C43.953 50.9354 44.3396 51.3935 44.7208 51.8516L45.1075 52.304L45.0476 50.9297C45.0149 50.1738 44.9114 47.7402 44.8134 45.5184C44.7208 43.3023 44.6065 40.6453 44.5629 39.626C44.5139 38.412 44.4486 37.7191 44.3832 37.6275C44.2688 37.4844 43.8604 37.4672 43.5119 37.5874ZM32.9198 41.2236C32.1737 41.4641 27.8334 42.9358 26.5972 43.3653C26.1888 43.5027 24.6204 44.041 23.1065 44.5563C18.3741 46.1654 14.0229 47.6772 13.8541 47.7745C13.7288 47.8432 13.7125 47.9062 13.7724 48.0265C13.8378 48.1582 15.7547 50.4258 17.7805 52.7679C18.0038 53.0255 18.4558 53.5581 18.7934 53.9589C19.1311 54.354 19.6212 54.9267 19.8935 55.2359C20.1603 55.5394 20.7485 56.2208 21.2005 56.7534C22.2787 58.0361 25.1105 61.3401 25.2848 61.5291C25.3556 61.6093 25.5898 61.8899 25.8022 62.1475L26.1834 62.6171L26.4774 62.4281C26.7661 62.2392 26.8205 62.2334 27.5067 62.3594C27.6919 62.3938 27.7735 62.1475 29.5162 56.427C29.9355 55.0698 30.8068 52.2239 31.4549 50.1051C32.1029 47.9864 32.7782 45.7589 32.9634 45.1519C33.1431 44.5449 33.4753 43.4626 33.6931 42.7411C33.9164 42.0253 34.0961 41.3954 34.0961 41.3496C34.0961 41.2981 33.9872 41.2007 33.8565 41.132C33.6387 41.0118 33.5461 41.0232 32.9198 41.2236ZM34.5045 41.9222C34.3575 42.4491 32.7837 47.6142 32.6148 48.1296C32.5713 48.2555 32.2772 49.229 31.9614 50.2884C31.6401 51.3477 31.2316 52.7049 31.0465 53.3119C30.8613 53.9188 30.3875 55.4649 29.9954 56.7476C29.6088 58.0361 29.0206 59.9429 28.6884 60.9908C28.3562 62.0502 28.133 62.892 28.1874 62.892C28.2419 62.892 28.8191 62.5656 29.4672 62.1704C29.9627 61.8669 30.4583 61.5635 30.9539 61.2657C31.1227 61.1626 31.8906 60.6988 32.6584 60.2292C33.4263 59.7597 34.913 58.8549 35.9695 58.2136C38.9102 56.4327 44.4213 53.0714 44.4594 53.0313C44.4758 53.0141 44.1599 52.619 43.7515 52.1494C43.3431 51.6799 42.7222 50.9412 42.3683 50.506C42.0143 50.0708 41.0014 48.8625 40.1137 47.8146C39.226 46.761 38.1641 45.5012 37.7557 45.0144C36.7972 43.8577 34.6842 41.3496 34.6734 41.3496C34.6679 41.3496 34.5917 41.6073 34.5045 41.9222ZM134.631 49.6928C133.76 49.7444 133.569 49.8131 133.269 50.1624C132.926 50.569 132.883 50.861 132.905 52.3956C132.926 53.7471 132.943 53.8616 133.095 53.8959C133.34 53.9417 133.406 53.7471 133.406 52.9912L133.411 52.304L134.402 52.3327C135.322 52.3556 135.393 52.3498 135.437 52.1838C135.524 51.8287 135.404 51.7887 134.337 51.8173C133.52 51.8402 133.329 51.823 133.367 51.7257C133.389 51.657 133.411 51.4222 133.411 51.1988C133.411 50.8839 133.465 50.7293 133.656 50.506C133.901 50.2197 133.907 50.2139 134.767 50.2197C135.617 50.2197 135.758 50.1738 135.764 49.899C135.764 49.6928 135.464 49.6413 134.631 49.6928ZM66.3297 49.7501C66.2535 49.8303 66.2481 53.5638 66.3243 53.7642C66.3515 53.8444 66.4713 53.9074 66.5857 53.9074H66.7926L66.8035 52.3269C66.809 51.4565 66.8253 50.5804 66.8417 50.3743C66.858 50.1738 66.8417 49.962 66.809 49.9047C66.7327 49.7787 66.406 49.6699 66.3297 49.7501ZM120.695 49.8761C120.096 50.2597 120.025 51.0958 120.548 51.6913L120.831 52.0177L121.866 52.0521C123.14 52.1036 123.315 52.1838 123.276 52.7449C123.244 53.266 123.048 53.3577 121.915 53.3577C121.256 53.3577 120.929 53.3176 120.711 53.2088C120.341 53.0255 120.194 53.1229 120.319 53.4722C120.439 53.7986 120.82 53.9074 121.85 53.9074C122.922 53.9074 123.304 53.8043 123.592 53.4378C123.859 53.1114 123.897 52.5044 123.685 52.0692C123.472 51.634 123.113 51.5023 122.008 51.4508C121.087 51.4107 121.011 51.3935 120.848 51.1759C120.635 50.8896 120.635 50.7808 120.858 50.4831C121.038 50.2483 121.065 50.2426 121.997 50.2426C122.699 50.2426 123.026 50.2769 123.222 50.3857C123.565 50.5747 123.723 50.4487 123.57 50.1051C123.423 49.7673 123.146 49.6928 122.002 49.6928C121.136 49.6928 120.94 49.7215 120.695 49.8761ZM138.53 49.7501C138.41 49.8761 138.459 52.7049 138.585 53.0198C138.835 53.6383 139.358 53.9074 140.289 53.9074C140.932 53.9074 141.117 53.8272 141.068 53.5753C141.041 53.4264 140.932 53.3977 140.294 53.3462C139.445 53.2832 139.205 53.2145 139.107 53.0026C139.069 52.9225 139.015 52.1551 138.993 51.2962C138.949 49.8131 138.938 49.7329 138.77 49.71C138.672 49.6928 138.563 49.71 138.53 49.7501ZM173.737 49.8188C173.296 50.025 173.247 50.2197 173.242 51.6913C173.231 53.2088 173.34 53.6554 173.737 53.8158C173.862 53.8673 174.608 53.9074 175.387 53.9074C176.574 53.9074 176.819 53.8845 176.863 53.77C176.89 53.6955 176.89 53.5695 176.863 53.4951C176.819 53.3806 176.585 53.3577 175.463 53.3577C174.701 53.3577 174.042 53.3176 173.949 53.266C173.808 53.1859 173.781 53.0656 173.781 52.5961V52.0292L175.295 52.0578C176.738 52.0864 176.809 52.0807 176.852 51.9089C176.95 51.5252 176.836 51.4966 175.295 51.4852L173.824 51.4794L173.797 51.0729C173.781 50.8495 173.792 50.5747 173.819 50.4544C173.873 50.2426 173.873 50.2426 175.349 50.2426H176.83V49.6928H175.414C174.423 49.6986 173.922 49.7329 173.737 49.8188ZM182.412 50.0307V50.38H181.383C180.261 50.38 180.038 50.4544 179.733 50.9469C179.608 51.153 179.58 51.3993 179.58 52.3327V53.4665L179.836 53.6955C180.076 53.9188 180.13 53.9246 181.018 53.8959C181.835 53.8673 181.987 53.8329 182.271 53.6325C182.848 53.2202 182.946 52.8652 182.919 51.1931L182.891 49.7386L182.652 49.71C182.429 49.6814 182.412 49.6986 182.412 50.0307ZM185.669 51.7715L185.685 53.8616H186.121V49.7386L185.652 49.6814L185.669 51.7715ZM188.806 49.836C188.778 49.9104 188.773 50.609 188.795 51.3764C188.855 53.4321 189.089 53.7986 190.396 53.8902C191.229 53.9475 191.501 53.873 191.463 53.6096C191.441 53.4207 191.376 53.3978 190.652 53.3519C190.222 53.3176 189.802 53.266 189.726 53.2317C189.426 53.0885 189.361 52.7507 189.345 51.2733C189.334 50.4773 189.323 49.7959 189.312 49.7615C189.29 49.6298 188.86 49.6928 188.806 49.836ZM194.213 51.7772L194.23 53.8616H194.665L194.682 51.7772L194.693 49.6928H194.197L194.213 51.7772ZM76.7475 50.3227C75.7673 50.38 75.7564 50.38 75.5059 50.6778C75.3316 50.8839 75.25 51.0729 75.25 51.2905C75.25 52.0349 75.6529 52.3498 76.5896 52.3498C77.401 52.3498 77.608 52.4472 77.608 52.848C77.608 53.0198 77.559 53.1973 77.4936 53.2374C77.4337 53.2775 76.9381 53.3348 76.3881 53.3577C75.495 53.3978 75.3807 53.4207 75.3534 53.5753C75.3044 53.8272 75.4514 53.8788 76.1975 53.8959C77.6243 53.9303 78.1308 53.6497 78.1253 52.8251C78.1199 52.0864 77.8966 51.9318 76.7421 51.8574C76.2084 51.8287 75.898 51.7658 75.849 51.6913C75.7401 51.5081 75.7619 51.2103 75.898 51.0156C76.0069 50.861 76.154 50.8324 76.9817 50.8037C77.7441 50.7808 77.9511 50.7465 77.9946 50.6319C78.0436 50.4945 77.8966 50.2254 77.7931 50.254C77.7605 50.2655 77.2921 50.2941 76.7475 50.3227ZM69.5319 50.4544C69.5101 50.5174 69.5046 51.3077 69.5155 52.2124L69.5373 53.8616H69.9784L70.022 52.3727C70.0438 51.5539 70.0928 50.8839 70.1309 50.8839C70.1636 50.8839 70.5121 50.8839 70.8933 50.8839C71.525 50.8839 71.6176 50.9068 71.8082 51.1072C72.0152 51.3248 72.026 51.3764 72.026 52.5789C72.026 53.6039 72.0478 53.8329 72.1567 53.873C72.2275 53.9074 72.3473 53.8788 72.4181 53.8158C72.6142 53.644 72.6033 51.4451 72.4018 51.0042C72.1567 50.4602 71.9552 50.38 70.6973 50.3571C69.8641 50.3456 69.5645 50.3685 69.5319 50.4544ZM80.8918 50.3914C80.7938 50.4945 80.821 52.4815 80.9299 52.8194C81.1532 53.5237 81.6324 53.8215 82.6127 53.8788C83.8489 53.9475 83.9904 53.7184 83.9523 51.6684L83.9251 50.38H83.4023L83.3152 53.3119L82.8632 53.3405C82.2315 53.3806 81.7359 53.2202 81.5507 52.9225C81.4309 52.7335 81.3874 52.4128 81.3547 51.531C81.3166 50.4602 81.3002 50.3743 81.1314 50.3514C81.0334 50.3342 80.9299 50.3514 80.8918 50.3914ZM87.4104 50.4086C87.0619 50.5289 86.746 50.8782 86.6643 51.2218C86.6262 51.4164 86.5881 52.0521 86.5881 52.6362C86.5881 53.4722 86.6153 53.7299 86.7133 53.8158C86.7896 53.8788 86.9039 53.9074 86.9693 53.8788C87.0673 53.8387 87.1 53.5409 87.1218 52.4987C87.1436 51.5653 87.1871 51.1301 87.2688 51.05C87.3396 50.9698 87.7263 50.9125 88.358 50.8839C89.3273 50.8381 89.3328 50.8381 89.3328 50.609C89.3328 50.38 89.3273 50.38 88.4614 50.3628C87.9822 50.3571 87.5084 50.3743 87.4104 50.4086ZM92.4532 50.443C92.1755 50.5861 92.0502 51.0843 92.0502 52.0463C92.0557 53.5581 92.4151 53.9303 93.8255 53.8845L94.6533 53.8616V53.0943C94.6533 52.4529 94.6261 52.304 94.4954 52.2239C94.2939 52.0864 94.1741 52.2754 94.1741 52.7335C94.1686 53.3061 94.1196 53.3577 93.5641 53.3577C92.7745 53.3577 92.6547 53.2088 92.6166 52.1723C92.6002 51.7142 92.6111 51.2332 92.6384 51.1072C92.6928 50.8896 92.7201 50.8839 93.428 50.8839C94.7513 50.8839 94.8766 51.0328 94.9365 52.682C94.9746 53.5924 95.0073 53.8444 95.1108 53.8845C95.187 53.9131 95.3014 53.8616 95.3722 53.7642C95.5464 53.518 95.4811 51.5997 95.285 51.2046C95.1108 50.8495 94.8058 50.5575 94.4954 50.4315C94.1795 50.3055 92.7092 50.317 92.4532 50.443ZM98.2911 50.3972C98.095 50.4373 98.095 50.4487 98.095 52.0292C98.095 52.8996 98.1223 53.6841 98.1495 53.7642C98.2094 53.936 98.5852 53.9589 98.6396 53.7929C98.6614 53.7299 98.6832 53.1 98.6886 52.3956C98.6941 51.6913 98.705 51.0442 98.705 50.9641C98.705 50.8324 98.7921 50.8152 99.2931 50.8495C100.203 50.9125 100.426 50.9641 100.508 51.1359C100.546 51.2218 100.6 51.8746 100.622 52.5789L100.665 53.8616H101.107L101.128 52.6705C101.161 51.3477 101.085 50.9297 100.753 50.6033C100.54 50.3914 100.459 50.38 99.5055 50.3685C98.9446 50.3628 98.4 50.3743 98.2911 50.3972ZM104.924 50.4659C104.2 50.798 103.661 51.7772 103.846 52.43C104.243 53.8444 105.844 54.3426 106.825 53.3577C107.375 52.8079 107.19 52.4644 106.601 52.9339C105.627 53.7184 104.374 53.226 104.374 52.0635C104.374 51.4279 104.962 50.8839 105.637 50.8839C105.948 50.8839 106.58 51.1588 106.683 51.342C106.716 51.3935 106.814 51.4336 106.906 51.4336C107.179 51.4336 107.124 51.0328 106.814 50.7579C106.345 50.3456 105.485 50.2139 104.924 50.4659ZM110.914 50.4773C109.983 50.9011 109.586 52.0635 110.076 52.9396C110.669 53.9933 112.004 54.1994 112.837 53.3634C113.392 52.8079 113.272 52.4472 112.684 52.8996C112.494 53.0484 112.156 53.2202 111.933 53.2832C111.579 53.3806 111.481 53.3748 111.116 53.2145C110.784 53.0714 110.664 52.9568 110.511 52.6247C110.261 52.0979 110.315 51.7257 110.702 51.279C110.969 50.9755 111.051 50.9354 111.53 50.9011C112.025 50.861 112.085 50.8839 112.516 51.1931C112.771 51.3764 113 51.5252 113.033 51.5252C113.185 51.5252 113.071 51.0328 112.875 50.8266C112.417 50.3456 111.546 50.191 110.914 50.4773ZM127.524 50.5518C126.74 50.9813 126.342 51.9032 126.631 52.6362C126.996 53.5581 127.851 54.0334 128.755 53.8215C129.588 53.6268 130.182 52.8881 130.182 52.0349C130.182 51.6283 129.86 51.0099 129.485 50.6949C129.201 50.4602 129.043 50.4029 128.553 50.3685C128.036 50.3227 127.905 50.3456 127.524 50.5518ZM139.107 50.4716C138.982 50.8152 139.129 50.8839 139.99 50.8839C140.806 50.8839 140.823 50.8782 140.823 50.6606C140.823 50.38 140.687 50.3342 139.853 50.3342C139.314 50.3342 139.145 50.3628 139.107 50.4716ZM143.845 50.3914C143.753 50.4888 143.78 52.3613 143.878 52.7392C144.139 53.7184 145.305 54.2452 145.844 53.6211C146.149 53.2718 146.296 53.2374 146.503 53.4894C146.993 54.0849 147.902 53.9647 148.414 53.2374C148.621 52.9396 148.757 52.0005 148.714 51.2046C148.697 50.9526 148.681 50.6491 148.676 50.5346C148.67 50.3571 148.627 50.3227 148.43 50.3514L148.191 50.38L148.147 51.5997L148.104 52.8251L147.815 53.0885C147.51 53.3806 147.401 53.4035 147.064 53.2718C146.644 53.1 146.535 52.7793 146.486 51.531L146.443 50.38H146.007L145.964 51.5882C145.925 52.7736 145.915 52.8022 145.664 53.0771C145.37 53.4035 145.158 53.4264 144.771 53.1801C144.406 52.9454 144.308 52.556 144.308 51.3191C144.308 50.3456 144.308 50.3342 144.107 50.3342C143.992 50.3342 143.878 50.3628 143.845 50.3914ZM151.742 50.3914C151.475 50.506 151.355 50.987 151.355 51.949C151.355 53.5409 151.671 53.9074 153.049 53.9074C153.958 53.9074 153.996 53.8673 153.936 52.9454C153.898 52.2754 153.822 52.1093 153.604 52.1952C153.511 52.2353 153.468 52.4071 153.446 52.7793L153.419 53.3119L152.852 53.3405C152.008 53.3806 151.943 53.3004 151.91 52.2181C151.861 50.8495 151.84 50.8839 152.727 50.8839C153.539 50.8839 153.882 51.0042 154.056 51.3535C154.121 51.4852 154.176 52.012 154.192 52.6476C154.214 53.7356 154.279 53.9589 154.541 53.8559C154.753 53.77 154.802 53.4493 154.753 52.4014C154.693 51.1931 154.448 50.6949 153.784 50.4315C153.539 50.3342 151.954 50.3055 151.742 50.3914ZM158.031 50.5174C157.536 50.7808 157.449 51.0213 157.411 52.304C157.372 53.4493 157.454 53.9074 157.694 53.9074C157.879 53.9074 157.89 53.8501 157.95 52.4415C157.993 51.5252 158.037 51.1702 158.135 51.0671C158.227 50.9698 158.532 50.9125 159.202 50.8839L160.134 50.8381L160.188 50.3342H159.289C158.56 50.3342 158.32 50.3685 158.031 50.5174ZM164.06 50.4373C163.722 50.569 163.189 51.1072 163.014 51.4852C162.492 52.6419 163.646 54.0677 164.931 53.8673C165.601 53.7585 166.298 53.1343 166.162 52.7564C166.113 52.6247 166.069 52.6304 165.803 52.848C165.144 53.3748 164.654 53.4722 164.103 53.1744C163.439 52.8194 163.216 52.0979 163.575 51.4794C163.978 50.798 164.855 50.6892 165.645 51.2332C166.113 51.5539 166.282 51.5023 166.118 51.0958C165.95 50.672 165.492 50.4086 164.866 50.3685C164.566 50.3514 164.202 50.38 164.06 50.4373ZM189.508 50.4716C189.383 50.8095 189.53 50.8839 190.341 50.8839C191.147 50.8839 191.273 50.8266 191.175 50.5174C191.126 50.3514 191.044 50.3342 190.341 50.3342C189.726 50.3342 189.546 50.3628 189.508 50.4716ZM198.515 50.4602C197.23 50.9641 197.029 52.7392 198.156 53.5295C198.684 53.8902 199.185 53.9704 199.746 53.7757C200.356 53.5638 200.95 52.9225 200.988 52.4415C201.053 51.5768 200.781 50.9641 200.182 50.609C199.746 50.3514 198.967 50.2826 198.515 50.4602ZM203.722 50.4659C203.7 50.5231 203.694 51.3077 203.705 52.2124L203.733 53.8616L204.212 53.9188V52.4071C204.212 51.5768 204.239 50.8782 204.277 50.861C204.31 50.8381 204.691 50.8495 205.11 50.8782C206.194 50.9469 206.216 50.9813 206.216 52.5789C206.216 53.8444 206.243 53.9303 206.586 53.8387C206.722 53.7986 206.739 53.6554 206.739 52.4987C206.739 51.0213 206.641 50.7064 206.08 50.4602C205.698 50.2941 203.782 50.2941 203.722 50.4659ZM182.298 50.7694C182.249 50.8495 181.96 50.8839 181.378 50.8839C180.288 50.8839 180.218 50.9354 180.141 51.7658C180.114 52.1093 180.109 52.6018 180.141 52.8538L180.19 53.3119L180.964 53.3405C181.851 53.3691 182.085 53.266 182.292 52.7507C182.429 52.4071 182.434 50.5461 182.298 50.7694ZM127.687 51.0671C127.143 51.3535 126.925 52.0463 127.197 52.6247C127.595 53.4665 128.886 53.5638 129.425 52.7908C129.681 52.4243 129.659 51.6799 129.387 51.3649C128.951 50.8725 128.292 50.7522 127.687 51.0671ZM198.521 51.0671C197.611 51.5882 197.786 52.9797 198.804 53.266C199.795 53.5466 200.607 52.785 200.427 51.7543C200.296 51.0385 199.24 50.6549 198.521 51.0671ZM110.827 51.8631C110.533 51.9776 110.468 52.0922 110.631 52.2239C110.86 52.4071 112.597 52.3956 112.744 52.2124C112.831 52.1036 112.831 52.0463 112.744 51.9375C112.663 51.8287 112.445 51.8001 111.797 51.8058C111.334 51.8116 110.898 51.8345 110.827 51.8631ZM163.815 51.8631C163.711 51.8917 163.662 51.9776 163.684 52.1036C163.706 52.2983 163.75 52.304 164.757 52.304C165.71 52.304 165.803 52.2868 165.83 52.1322C165.846 52.0349 165.808 51.9261 165.743 51.8803C165.623 51.8001 164.098 51.7887 163.815 51.8631Z" fill="#F1F1FF"/>
</svg>
