<svg width="112" height="35" viewBox="0 0 112 35" fill="none" xmlns="http://www.w3.org/2000/svg">
<path fill-rule="evenodd" clip-rule="evenodd" d="M14.2965 0.111002C14.0932 0.299089 13.9724 0.514927 13.9576 0.715347C13.9429 0.897267 13.9252 0.921934 13.6365 1.08844C13.4656 1.18711 12.9882 1.47386 12.5728 1.7267C11.7183 2.24779 11.7507 2.22929 10.9227 2.72572C10.4808 2.99397 10.0417 3.25915 9.60269 3.5274C8.12649 4.42775 6.33501 5.50386 6.06688 5.65494C5.8341 5.78444 5.76338 5.80294 5.65731 5.76594C5.44221 5.68578 5.07685 5.92011 5.02676 6.16987C5.00024 6.29012 4.84702 6.40112 3.87761 6.98697C3.27063 7.35389 2.6607 7.7239 2.05372 8.09391C1.06958 8.69517 1.16682 8.65508 0.889848 8.58108C0.671806 8.5225 0.639394 8.52558 0.44787 8.6335C0.141432 8.80309 0 9.01892 0 9.31801C0 9.54618 0.0147326 9.57702 0.235721 9.79285C0.365368 9.91619 0.492068 10.021 0.518586 10.021C0.550998 10.021 0.568678 12.3706 0.568678 17.5938V25.1636L0.424298 25.2283C0.344743 25.2622 0.218042 25.3702 0.141432 25.4657C0.0265187 25.6137 0 25.6877 0 25.9036C0 26.0485 0.0176791 26.1626 0.0412512 26.1626C0.0618769 26.1626 0.106075 26.2181 0.138486 26.2798C0.173844 26.3445 0.285812 26.4493 0.38894 26.5079C0.539212 26.5973 0.618768 26.6128 0.795559 26.5881C0.998869 26.5603 1.04896 26.5788 1.3937 26.7885C1.85336 27.066 3.52993 28.102 3.82163 28.287C4.02494 28.4165 5.09453 29.0764 6.55894 29.9767C6.9361 30.208 7.90255 30.8031 8.70695 31.2995C9.51135 31.7959 10.8903 32.647 11.7713 33.1866C13.5864 34.3027 13.9017 34.5124 14.2022 34.7961C14.3937 34.978 14.4379 34.9996 14.6678 34.9996C14.9153 35.0027 14.9212 34.9965 15.2099 34.6851C15.4221 34.4507 15.6548 34.2719 16.088 34.0098C16.4121 33.8156 16.9543 33.4887 17.2931 33.2852C18.0415 32.832 18.0032 32.8535 18.9903 32.2615C19.4323 31.9964 20.5254 31.3365 21.4212 30.7938C22.314 30.2512 23.3452 29.6283 23.7077 29.4094C24.0701 29.1905 24.6653 28.8297 25.0277 28.6077C27.4645 27.1184 28.263 26.659 28.3926 26.659C28.7963 26.659 29.1558 26.2952 29.1558 25.8912C29.1558 25.6754 29.0939 25.5397 28.9142 25.3702L28.7786 25.2407V17.6123L28.7816 9.98711L28.8965 9.87302C29.0468 9.72502 29.1558 9.47527 29.1558 9.28101C29.1558 8.81542 28.6578 8.44233 28.2335 8.59033C28.0803 8.64275 28.0479 8.6335 27.7739 8.45158C27.6147 8.34366 27.3967 8.20491 27.2936 8.14324C27.1904 8.08157 27.0402 7.98907 26.9636 7.93974C26.7367 7.79173 25.1132 6.76805 24.6682 6.49362C24.3441 6.2932 24.2469 6.20379 24.1732 6.04962C24.0465 5.76903 23.8756 5.65802 23.578 5.65186C23.3482 5.64878 23.2627 5.60561 22.4348 5.09068C21.9427 4.78234 21.4624 4.48017 21.374 4.4185C21.2385 4.32908 20.5549 3.89741 19.6179 3.31156C19.5472 3.2684 19.1023 2.98781 18.6279 2.68872C18.3126 2.49138 17.9973 2.29404 17.682 2.09671C17.2872 1.8562 15.9053 0.977436 15.6519 0.807849C15.4191 0.650596 15.3337 0.564261 15.3337 0.484093C15.3337 0.422425 15.2512 0.299089 15.1363 0.188087C14.9565 0.015417 14.9182 0 14.6766 0C14.4733 0 14.3878 0.0277503 14.2965 0.111002ZM15.0979 1.25494C15.0979 1.35669 15.2659 1.57561 16.3001 2.80897C16.5859 3.15123 16.8659 3.48423 16.9189 3.55207C16.9749 3.6199 17.1988 3.88816 17.4169 4.15025C17.9295 4.76692 18.2566 5.1616 18.454 5.40519C18.5424 5.51311 18.622 5.61177 18.6367 5.62719C18.6485 5.63952 18.7988 5.81836 18.9667 6.02187C19.1347 6.22537 19.2938 6.41654 19.3203 6.44429C19.391 6.52754 19.8359 7.06405 19.9685 7.22747C20.0717 7.35697 20.0982 7.36622 20.2249 7.31997C20.3869 7.25831 20.6168 7.33847 20.7965 7.51731L20.9055 7.62215L21.2915 7.40939C21.6363 7.22131 21.981 7.0363 22.3287 6.8513L22.9769 6.50287V6.32095C22.9769 6.19454 22.9445 6.10512 22.8709 6.0342C22.7825 5.94786 19.4588 3.83266 17.7174 2.75347C16.7745 2.16763 15.9171 1.63111 15.6106 1.43378C15.3425 1.26111 15.0979 1.17477 15.0979 1.25494ZM14.0578 1.47078C13.8928 1.56328 10.6104 3.53665 9.53198 4.19341C8.87491 4.59425 7.43701 5.46377 7.28968 5.54702C7.23959 5.57786 6.96556 5.74744 6.68564 5.9232C6.1317 6.2747 6.06393 6.37029 6.20831 6.60154C6.28786 6.72796 7.04217 7.63756 7.57255 8.24499C7.70219 8.39608 7.87309 8.59341 7.95265 8.689C8.0322 8.78458 8.36221 9.17309 8.68338 9.55543L10.0918 11.2205C10.5426 11.757 10.9168 12.1917 10.9257 12.1917C10.9404 12.1917 11.4236 10.6624 12.8321 6.16987C13.3566 4.49867 13.9105 2.7473 14.0637 2.27246C14.2169 1.79762 14.3436 1.40603 14.3436 1.39678C14.3436 1.35361 14.2052 1.39061 14.0578 1.47078ZM14.6029 1.5417C14.5705 1.6342 13.8663 3.86966 13.1149 6.26854C12.6995 7.60056 12.2781 8.9295 11.8568 10.2584L11.2734 12.1023L11.4737 12.2904L11.677 12.4816L14.1786 11.1557C15.5547 10.428 17.3756 9.46293 18.2271 9.01584C19.0816 8.56875 19.7859 8.19257 19.7976 8.18024C19.8094 8.16791 19.7947 8.09699 19.7623 8.02607C19.7181 7.92432 19.7181 7.8719 19.7682 7.77632C19.8418 7.6314 19.7917 7.55123 19.1789 6.83588C18.9697 6.59229 18.5984 6.14828 18.3538 5.8492C18.1093 5.55011 17.8235 5.20477 17.7203 5.08143C17.4846 4.80701 17.2725 4.55109 16.9631 4.17183C16.8305 4.01149 16.3237 3.40407 15.8346 2.81822C15.3455 2.23238 14.9005 1.6897 14.8475 1.6157C14.7444 1.47078 14.6383 1.43994 14.6029 1.5417ZM37.6476 5.71044C36.6871 5.81219 35.9151 6.51829 35.6941 7.50806C35.588 7.97057 35.5851 20.0359 35.6911 20.5539C35.8856 21.5221 36.4779 22.1357 37.3412 22.2621C37.7773 22.3268 47.6628 22.3268 48.2462 22.2652C49.9287 22.0771 51.1486 20.9547 51.5964 19.1756C51.7055 18.7409 51.7202 18.5898 51.7202 17.8467C51.7202 17.1437 51.7055 16.9402 51.62 16.6102C51.3961 15.7315 50.9394 15.013 50.2499 14.458C49.9493 14.2144 49.3158 13.8444 49.0418 13.7488C48.9564 13.718 48.9622 13.7026 49.1125 13.5854C49.5604 13.237 49.9994 12.6604 50.2587 12.0807C50.5534 11.4209 50.6919 10.3232 50.5799 9.5061C50.3618 7.90274 49.1626 6.39187 47.7188 5.89853C47.103 5.68886 46.7759 5.67653 42.1794 5.68269C39.778 5.68886 37.739 5.69811 37.6476 5.71044ZM83.6457 5.74436C83.0888 5.90161 82.6173 6.45046 82.47 7.11647C82.4406 7.25214 82.4229 9.95011 82.4229 14.5012C82.4199 20.4861 82.4317 21.7009 82.4848 21.8335C82.6969 22.3515 83.3687 22.5057 83.7577 22.1233C84.0405 21.8458 84.0228 22.3608 84.0258 14.5906C84.0258 10.3756 84.0435 7.45256 84.07 7.45256C84.1171 7.45256 84.73 8.34983 85.5521 9.62635C85.8556 10.1012 86.2622 10.724 86.4537 11.0077C86.6629 11.3191 86.8721 11.6306 87.0754 11.9451C87.5704 12.7036 89.2676 15.2905 90.5582 17.2516C91.2536 18.3123 92.005 19.4562 92.2259 19.7954C93.3574 21.5406 93.6403 21.8828 94.1441 22.1418C94.4005 22.2744 94.4712 22.2898 94.8984 22.2868C95.2962 22.2837 95.4023 22.2683 95.5761 22.1727C96.0152 21.9291 96.3481 21.4974 96.4719 21.0041C96.5043 20.8715 96.5249 18.414 96.5308 13.5762C96.5426 6.9623 96.5367 6.3302 96.466 6.18837C96.3039 5.86461 95.9091 5.63644 95.6144 5.69811C95.4258 5.73511 95.1253 5.97253 95.0016 6.1822C94.9043 6.34254 94.9043 6.37954 94.9191 10.983C94.9367 16.897 94.8896 20.6371 94.7982 20.6001C94.7157 20.5662 94.2384 19.8879 93.5401 18.8056C93.2336 18.3308 92.8123 17.6894 92.6031 17.3749C92.3968 17.0635 92.111 16.6318 91.9725 16.4129C91.8311 16.1971 91.6337 15.898 91.5335 15.7469C91.4333 15.5989 91.1622 15.1857 90.9324 14.8311C90.0426 13.4683 89.4179 12.5155 89.2146 12.2133C89.0967 12.0406 88.7726 11.5504 88.4898 11.1218C88.0419 10.4373 87.594 9.75277 87.1461 9.07134C86.6865 8.37141 86.1414 7.53889 85.9351 7.22131C85.2898 6.23154 84.898 5.87078 84.3028 5.72894C84.0405 5.66419 83.9109 5.66727 83.6457 5.74436ZM62.7225 5.89236C62.528 5.98178 62.2923 6.2747 62.2304 6.50287C62.1656 6.75263 62.1626 18.1334 62.2304 18.8673C62.2864 19.4994 62.4072 19.9403 62.6606 20.4367C63.1821 21.4604 64.1132 22.2066 65.0915 22.3885C65.392 22.444 66.4174 22.4594 70.6457 22.4594C75.7254 22.4625 75.8374 22.4594 76.026 22.3638C76.63 22.0555 76.6271 21.1675 76.0201 20.853C75.8463 20.7605 75.64 20.7574 70.6722 20.7543C66.6914 20.7512 65.4598 20.7358 65.2948 20.6896C64.6937 20.5138 64.1928 20.0081 63.9453 19.3267C63.8598 19.0893 63.8569 18.8087 63.8333 12.7313L63.8097 6.38262L63.6742 6.19762C63.4414 5.87695 63.0378 5.75053 62.7225 5.89236ZM79.22 5.87695C79.0108 5.96328 78.834 6.12978 78.7397 6.32095C78.6484 6.50904 78.6454 6.63854 78.6454 14.125V21.7379L78.7456 21.9568C78.8635 22.2066 79.1051 22.3885 79.3762 22.4348C79.6207 22.4748 79.9272 22.3176 80.1305 22.0493L80.2749 21.8613L80.2867 14.273C80.2984 8.615 80.2867 6.63546 80.2454 6.47821C80.1275 6.02803 79.6001 5.71661 79.22 5.87695ZM99.1856 5.91703C99.0795 5.96945 98.9322 6.09587 98.8556 6.19762L98.7201 6.38262L98.7083 14.0387C98.6935 22.6229 98.667 21.9846 99.0353 22.2621C99.4036 22.5427 99.825 22.4841 100.143 22.1048C100.288 21.9322 100.291 21.9106 100.323 21.3186C100.338 20.9825 100.347 19.3267 100.335 17.637C100.326 15.9442 100.323 14.5629 100.326 14.5629C100.332 14.5629 100.47 14.7016 100.638 14.8712C100.806 15.0408 101.316 15.457 101.776 15.7962C103.228 16.8692 103.673 17.193 104.168 17.5507C104.43 17.7388 104.752 17.9731 104.878 18.0687C105.005 18.1612 105.273 18.3585 105.476 18.5034C105.677 18.6484 106.449 19.2034 107.188 19.7399C111.131 22.592 110.821 22.3793 111.11 22.4378C111.29 22.4718 111.573 22.3762 111.732 22.2251C111.879 22.0863 112 21.7873 112 21.5683C112 21.1952 111.853 21.0318 110.869 20.3288C110.621 20.15 109.687 19.4778 108.794 18.8334C108.102 18.3339 107.409 17.8343 106.717 17.3348C106.331 17.0573 105.945 16.7767 105.562 16.4961C105.173 16.2094 104.684 15.8548 104.475 15.7037C104.268 15.5557 103.909 15.2875 103.673 15.1117C103.364 14.8774 103.051 14.6461 102.739 14.4179C102.271 14.0757 102.235 14.0387 102.315 13.977C102.875 13.5453 106.145 11.2266 109.148 9.13301C110.444 8.22649 111.57 7.43406 111.646 7.36622C112.18 6.90988 112.091 6.16987 111.47 5.90161C111.375 5.85845 111.249 5.82453 111.19 5.82453C110.939 5.82761 110.842 5.89236 106.623 8.86167C101.779 12.2719 100.977 12.8577 100.573 13.2709L100.302 13.5453L100.314 9.99019L100.323 6.43196L100.196 6.2377C99.9517 5.87078 99.5451 5.74128 99.1856 5.91703ZM24.0112 6.83896C23.9758 6.88522 23.8962 6.94072 23.8344 6.96538L23.7194 7.01163L23.7519 8.01065C23.7695 8.5595 23.8049 9.34268 23.8285 9.74969C23.852 10.1567 23.8727 10.7055 23.8727 10.9738C23.8727 11.387 23.8845 11.4579 23.9552 11.4826C24.1555 11.5504 24.2704 11.6336 24.353 11.7724C24.4561 11.9512 24.4649 12.1887 24.3706 12.3182C24.2822 12.4446 24.3058 12.4847 25.0248 13.3264C25.8999 14.3563 27.8593 16.7212 28.151 17.0974C28.2424 17.2146 28.2718 17.1776 28.2718 16.9463C28.2689 16.8446 28.2659 15.2474 28.2659 13.4004L28.26 10.0395L28.0508 9.87611C27.8122 9.68494 27.7238 9.50302 27.7503 9.25326L27.7709 9.07751L27.0137 8.60266C26.4685 8.26349 25.9264 7.92124 25.3842 7.5759C24.0053 6.70638 24.0848 6.74646 24.0112 6.83896ZM22.0989 7.37239C21.5066 7.68073 20.9674 7.97674 20.9055 8.02915C20.8053 8.11549 20.7995 8.14016 20.8554 8.24499C20.9114 8.36216 21.2061 8.73833 21.5655 9.15768C21.6598 9.26559 21.8101 9.44135 21.8985 9.54618C22.037 9.70652 22.0841 9.73427 22.1873 9.70652C22.3022 9.67568 22.3375 9.59552 22.6233 8.67358C22.7942 8.12474 23.0005 7.48956 23.0771 7.26447C23.1567 7.03938 23.2127 6.84513 23.2009 6.8328C23.1891 6.82046 22.6941 7.06405 22.0989 7.37239ZM4.903 7.00547C4.66433 7.13805 2.99955 8.13091 2.8316 8.24191C2.7933 8.26657 2.45739 8.467 2.08908 8.689L1.41727 9.08676V9.28409C1.41727 9.50302 1.33477 9.70035 1.1845 9.84219L1.08726 9.93777V14.0079C1.08726 16.2433 1.10494 18.0687 1.12557 18.0594C1.24932 18.007 5.64847 15.676 5.69856 15.6359C5.73097 15.6081 5.75749 15.4971 5.75749 15.3861C5.75749 15.2505 5.7899 15.1487 5.85767 15.0747L5.95785 14.9606L5.85767 13.2185C5.69267 10.3879 5.61606 9.09909 5.56597 8.35599C5.5424 7.97057 5.52177 7.52348 5.52177 7.36006C5.52177 7.10105 5.50704 7.0548 5.39802 6.9623C5.23596 6.8328 5.21828 6.8328 4.903 7.00547ZM23.0506 8.26657C22.8208 9.00042 22.6263 9.62635 22.6204 9.66027C22.6145 9.69419 22.6499 9.77127 22.7029 9.83294C22.7559 9.89461 22.8296 10.0118 22.8679 10.0919C22.9357 10.2245 22.9327 10.2523 22.8591 10.3972C22.8149 10.4835 22.7854 10.576 22.7942 10.6038C22.8443 10.7518 23.5574 11.5504 23.6369 11.5504C23.6988 11.5504 23.6959 11.3993 23.5486 8.48858L23.4719 6.93455L23.0506 8.26657ZM6.06098 7.63756C6.07572 7.84723 6.1317 8.78767 6.18474 9.72502C6.23483 10.6624 6.30849 11.9173 6.34679 12.5124C6.38215 13.1106 6.4293 13.8722 6.44698 14.2083L6.47939 14.8157L6.64145 14.9329C6.74163 15.0038 6.83592 15.0346 6.88306 15.013C6.92431 14.9945 7.27789 14.8095 7.66683 14.6029C8.05577 14.3964 8.84249 13.9801 9.41412 13.6779C9.9828 13.3758 10.4572 13.1106 10.466 13.0828C10.4749 13.0582 10.4454 12.9687 10.4041 12.8824C10.3305 12.7375 10.3334 12.719 10.4071 12.6357C10.4513 12.5833 10.4749 12.5124 10.4601 12.4785C10.4395 12.423 10.0506 11.9512 8.5449 10.1659C7.29263 8.67975 6.07572 7.25522 6.05509 7.25522C6.0433 7.25522 6.04625 7.42789 6.06098 7.63756ZM37.5769 7.44948C37.5268 7.47414 37.4414 7.53889 37.3883 7.60056C37.297 7.70848 37.294 7.78865 37.2823 13.9863C37.2734 18.6021 37.2852 20.3011 37.3235 20.3997C37.3559 20.4799 37.4296 20.5539 37.5003 20.5724C37.571 20.594 39.9813 20.6094 42.863 20.6063C48.591 20.6001 48.3641 20.6125 48.921 20.3165C49.4249 20.0482 49.8079 19.5117 49.9817 18.8334C50.1674 18.1149 50.1202 17.082 49.8845 16.5578C49.5692 15.8641 48.8621 15.3954 47.6805 15.0994C46.5402 14.8157 46.2161 14.6554 46.0481 14.2946C45.9303 14.0387 45.9273 13.8074 46.0423 13.5515C46.2014 13.1877 46.4224 13.0335 47.2533 12.6974C47.8308 12.4662 48.3523 12.1085 48.5674 11.8032C48.7825 11.4918 48.9269 10.9861 48.9593 10.4064C48.9917 9.79594 48.9239 9.41976 48.6794 8.88634C48.3494 8.16791 47.7689 7.67148 47.0352 7.48339C46.7612 7.41248 46.2102 7.40323 42.2 7.40631C39.7102 7.40939 37.63 7.42789 37.5769 7.44948ZM18.1977 9.42285C13.0177 12.1578 11.7183 12.8516 11.6594 12.9102C11.6004 12.9687 11.6299 13.0243 11.8479 13.2987C12.0837 13.5947 13.4332 15.198 13.495 15.2535C13.5098 15.2659 14.1668 16.046 14.9565 16.9802C15.7462 17.9176 16.4592 18.7624 16.5417 18.858C16.6242 18.9536 17.0456 19.4531 17.4787 19.9681C17.9119 20.483 18.2979 20.9239 18.3362 20.9486C18.3774 20.9702 18.4334 20.964 18.4747 20.927C18.5159 20.8931 18.6102 20.8807 18.7045 20.8962L18.8665 20.9239L19.2879 19.558C19.5207 18.8056 19.8212 17.8251 19.9568 17.3749C20.0923 16.9278 20.2602 16.3728 20.3339 16.1416C20.4076 15.9103 20.6197 15.2227 20.8053 14.6122C21.0116 13.9369 21.2179 13.2617 21.4271 12.5864C21.5832 12.0838 21.7659 11.498 21.8307 11.279C21.8985 11.0632 21.9604 10.8597 21.9722 10.8289C21.984 10.798 21.9368 10.7117 21.869 10.6346C21.7188 10.465 21.6716 10.2831 21.7453 10.1598C21.8219 10.0272 21.7747 9.95011 21.1236 9.17618L20.5608 8.50708L20.2573 8.50091C19.9568 8.49783 19.9538 8.49783 18.1977 9.42285ZM22.1578 11.2174C22.0871 11.4425 21.869 12.1455 21.6746 12.7837C21.2503 14.1713 20.7405 15.8394 20.4282 16.8569C20.3015 17.2639 20.0363 18.1303 19.8389 18.784C19.6385 19.4346 19.3969 20.224 19.2997 20.5354C19.1582 20.9856 19.1376 21.112 19.1848 21.1428C19.2231 21.1675 19.7652 21.0041 20.5343 20.7389C22.8679 19.9341 23.4248 19.746 23.4867 19.746C23.5191 19.746 23.5869 19.6474 23.6369 19.5271C23.6959 19.3822 23.7784 19.2805 23.8756 19.225L24.0259 19.1448L23.9964 18.5929C23.964 18.0163 23.8491 15.3121 23.802 14.0449C23.7578 12.8115 23.7401 12.6882 23.6134 12.6357C23.5544 12.6142 23.4484 12.5155 23.3777 12.4168C23.2686 12.2688 23.2539 12.2133 23.2804 12.0314C23.3099 11.8217 23.3069 11.8156 22.9092 11.3469C22.5497 10.9183 22.4318 10.8104 22.3199 10.8104C22.2992 10.8104 22.2256 10.9923 22.1578 11.2174ZM23.967 12.941C23.967 13.0859 23.9994 13.8167 24.0347 14.5629C24.073 15.309 24.1261 16.5979 24.1555 17.4243C24.185 18.2537 24.2174 18.9752 24.2292 19.0307C24.241 19.0893 24.3323 19.1695 24.459 19.2311L24.6712 19.3329L25.5581 19.0276C26.1061 18.8395 26.6512 18.6514 27.1993 18.4664C28.0744 18.1735 28.3072 18.0748 28.3072 17.9978C28.3072 17.8405 28.1746 17.6648 27.2464 16.5578C26.6159 15.8086 26.0619 15.1395 25.9205 14.9575C25.8468 14.862 25.6347 14.606 25.4491 14.3902C25.2634 14.1713 25.0483 13.9154 24.9688 13.8228C24.3913 13.1198 24.0406 12.7097 24.0082 12.6943C23.9846 12.6851 23.967 12.7961 23.967 12.941ZM55.8925 12.9595C53.5087 13.0243 53.491 13.0243 53.3319 13.1383C53.1522 13.2678 52.9813 13.5823 52.9813 13.7889C52.9813 13.9801 53.0874 14.1744 53.2966 14.3655L53.4734 14.5289L54.9849 14.495C60.0205 14.3871 59.776 14.3994 59.9675 14.2299C60.1561 14.0634 60.2474 13.8691 60.2474 13.6255C60.2474 13.3696 60.159 13.1908 59.9557 13.0304C59.8054 12.9132 59.7701 12.9071 59.0452 12.9009C58.6298 12.8978 57.2095 12.9256 55.8925 12.9595ZM38.2399 13.126C37.68 13.3973 37.5445 14.0541 37.957 14.4858C38.0454 14.5814 38.2045 14.68 38.3076 14.7109C38.4343 14.7448 39.501 14.7571 41.5842 14.7479C44.6338 14.7355 44.6721 14.7324 44.8047 14.6307C45.2968 14.2484 45.341 13.6594 44.9049 13.2463C44.6839 13.0366 44.6102 13.0304 41.4516 13.0335C38.6082 13.0335 38.4167 13.0397 38.2399 13.126ZM11.1143 13.4189C11.1025 13.4436 11.0376 13.4528 10.9758 13.4405C10.8638 13.4189 10.8491 13.4559 10.2627 15.3337C9.46126 17.9145 8.86312 19.817 7.9939 22.5519L7.26905 24.8429L7.37218 24.9816C7.43111 25.0587 7.51362 25.1235 7.55487 25.1235C7.59612 25.1266 7.99095 25.0032 8.42704 24.8552C8.86607 24.7041 9.88261 24.3588 10.687 24.0844C16.5064 22.111 18.071 21.5683 18.071 21.5313C18.071 21.4974 17.6202 20.89 17.5553 20.8314C17.5377 20.8191 17.3019 20.5416 17.0309 20.2147C16.7598 19.8879 16.029 19.0214 15.4103 18.2907C14.7886 17.5568 14.0726 16.712 13.8221 16.4129C13.5687 16.1138 13.0973 15.5588 12.7761 15.1795C12.4549 14.8003 12.1279 14.4118 12.0542 14.3162C11.8126 14.0171 11.2144 13.3788 11.1761 13.3788C11.1585 13.3788 11.129 13.3973 11.1143 13.4189ZM8.68338 14.458C7.03923 15.3214 6.90663 15.4015 6.83297 15.565C6.78583 15.6606 6.70332 15.7746 6.64734 15.8147C6.53242 15.898 6.53243 15.9504 6.67975 18.2167C6.71511 18.7994 6.81234 20.4336 6.88895 21.8428C6.96851 23.2549 7.03923 24.4451 7.04512 24.4852C7.05396 24.5253 7.1453 24.2817 7.25432 23.9425C7.3604 23.6034 7.96149 21.6917 8.58909 19.6967C9.2167 17.7018 9.90619 15.5033 10.1242 14.8157C10.3423 14.125 10.522 13.5546 10.522 13.5453C10.522 13.496 10.3452 13.5854 8.68338 14.458ZM3.98664 16.934C1.7797 18.1088 1.19334 18.414 1.13146 18.414C1.02539 18.414 1.11673 18.5466 1.57344 19.0677C1.9889 19.5425 3.46805 21.26 4.07798 21.9723C4.75862 22.7678 5.0356 23.0915 5.4982 23.6188C5.78401 23.9487 6.12581 24.3465 6.26135 24.5099C6.39688 24.6702 6.51769 24.7936 6.52948 24.7812C6.54126 24.7658 6.53243 24.5222 6.5118 24.2385C6.48823 23.9518 6.4234 22.9528 6.37037 22.0185C6.29965 20.8283 6.22893 19.6412 6.15527 18.451C6.09339 17.4273 6.04036 16.4314 6.04036 16.2433C6.04036 15.9936 6.02268 15.898 5.98143 15.9011C5.94901 15.9041 5.05033 16.3697 3.98664 16.934ZM26.5039 19.2219C24.8067 19.8077 24.7684 19.8231 24.6535 19.9989C24.5916 20.0976 24.4826 20.1931 24.4178 20.2116C24.2763 20.2486 24.2734 20.2641 24.3441 21.6701C24.3677 22.1727 24.4119 23.1624 24.4384 23.8685C24.4649 24.5746 24.5091 25.6076 24.5327 26.1626C24.5563 26.7207 24.5798 27.4052 24.5857 27.6827C24.5916 28.0311 24.6093 28.1884 24.6476 28.1884C24.7006 28.1884 27.5293 26.4925 27.7149 26.3476C27.7974 26.2859 27.8033 26.2582 27.7532 26.0917C27.6737 25.8142 27.7974 25.4935 28.0626 25.3116L28.26 25.1697V21.889C28.26 20.0852 28.2541 18.6114 28.2482 18.6144C28.2424 18.6175 27.4586 18.8919 26.5039 19.2219ZM1.08726 22.0863V25.2376L1.25816 25.4349C1.41433 25.6168 1.42611 25.6538 1.40549 25.8727C1.3937 26.0022 1.39665 26.1287 1.41138 26.1503C1.42906 26.1718 1.59996 26.289 1.79443 26.4062C2.1156 26.6035 2.43972 26.8039 2.76089 27.0013C3.09973 27.2109 3.69198 27.5779 4.08092 27.8153C4.47281 28.0558 5.24774 28.5337 5.80464 28.8791C7.47531 29.912 12.1131 32.7703 12.8586 33.2236C13.0914 33.3654 13.389 33.5566 13.5186 33.6429C13.8427 33.8618 13.9812 33.9358 13.9606 33.8741C13.9488 33.8464 13.6424 33.4826 13.277 33.0663C12.9116 32.65 12.3813 32.0364 12.0984 31.7034C10.8049 30.1833 8.99277 28.0743 8.63034 27.6704C8.50954 27.5347 8.15006 27.1154 7.83184 26.7392C7.30147 26.1102 7.24548 26.0578 7.13057 26.0917C6.75636 26.1996 6.50885 26.0978 6.32617 25.7617C6.21126 25.549 6.20242 25.3732 6.29965 25.179L6.36742 25.0371L5.48347 24.0042C4.5671 22.9343 3.9719 22.2405 3.35313 21.5221C3.02902 21.149 2.70785 20.7759 2.38962 20.3997C2.05667 20.0112 1.62942 19.524 1.4379 19.3144L1.09021 18.932L1.08726 22.0863ZM23.5427 20.2394C23.4778 20.2641 22.8532 20.4737 22.1519 20.7111C19.282 21.6762 19.2761 21.6793 19.2378 21.8952C19.2142 22.0247 19.2967 22.1264 20.6993 23.7822C21.1236 24.2817 21.5449 24.7812 21.9663 25.2807C22.2609 25.6353 22.6528 26.0978 22.8296 26.3044C23.0801 26.5943 23.3276 26.8872 23.5721 27.1801C23.7813 27.4268 23.9905 27.6734 24.1968 27.9201L24.406 28.1637L24.3736 27.4237C24.3559 27.0167 24.2999 25.7062 24.2469 24.5099C24.1968 23.3166 24.1349 21.8859 24.1113 21.3371C24.0848 20.6834 24.0495 20.3103 24.0141 20.261C23.9522 20.1839 23.7312 20.1746 23.5427 20.2394ZM17.8117 22.1973C17.408 22.3268 15.0596 23.1193 14.3908 23.3505C14.1698 23.4245 13.3212 23.7144 12.5021 23.9919C9.94154 24.8583 7.58728 25.6723 7.49593 25.7247C7.42817 25.7617 7.41933 25.7957 7.45174 25.8604C7.4871 25.9313 8.52427 27.1524 9.62037 28.4135C9.74118 28.5522 9.98574 28.839 10.1684 29.0548C10.3511 29.2676 10.6163 29.5759 10.7636 29.7424C10.908 29.9058 11.2262 30.2727 11.4708 30.5595C12.0542 31.2502 13.5864 33.0293 13.6807 33.1311C13.719 33.1742 13.8457 33.3253 13.9606 33.4641L14.1668 33.7169L14.326 33.6151C14.4821 33.5134 14.5116 33.5103 14.8828 33.5781C14.983 33.5966 15.0272 33.4641 15.9701 30.3837C16.197 29.653 16.6684 28.1205 17.0191 26.9797C17.3697 25.8388 17.7351 24.6394 17.8353 24.3125C17.9325 23.9857 18.1122 23.4029 18.2301 23.0144C18.3509 22.629 18.4481 22.2898 18.4481 22.2652C18.4481 22.2374 18.3892 22.185 18.3185 22.148C18.2006 22.0833 18.1505 22.0894 17.8117 22.1973ZM18.6691 22.5735C18.5896 22.8572 17.738 25.6384 17.6467 25.9159C17.6231 25.9837 17.464 26.5079 17.2931 27.0784C17.1193 27.6488 16.8983 28.3795 16.7981 28.7064C16.6979 29.0332 16.4416 29.8657 16.2294 30.5564C16.0202 31.2502 15.702 32.277 15.5222 32.8412C15.3425 33.4116 15.2217 33.8649 15.2512 33.8649C15.2806 33.8649 15.593 33.6891 15.9436 33.4764C16.2117 33.313 16.4799 33.1496 16.748 32.9892C16.8393 32.9337 17.2548 32.684 17.6703 32.4311C18.0857 32.1783 18.8901 31.6911 19.4617 31.3458C21.0529 30.3868 24.0347 28.5769 24.0554 28.5553C24.0642 28.546 23.8933 28.3333 23.6723 28.0805C23.4513 27.8276 23.1154 27.4299 22.9239 27.1955C22.7324 26.9612 22.1843 26.3106 21.704 25.7463C21.2238 25.179 20.6492 24.5006 20.4282 24.2385C19.9096 23.6157 18.7664 22.2652 18.7605 22.2652C18.7575 22.2652 18.7163 22.4039 18.6691 22.5735ZM72.8438 26.7577C72.3723 26.7854 72.2692 26.8224 72.1071 27.0105C71.9215 27.2294 71.8979 27.3867 71.9097 28.213C71.9215 28.9407 71.9303 29.0024 72.0128 29.0209C72.1454 29.0456 72.1808 28.9407 72.1808 28.5337L72.1837 28.1637L72.72 28.1791C73.218 28.1915 73.2563 28.1884 73.2798 28.099C73.327 27.9078 73.2622 27.8862 72.6846 27.9016C72.2427 27.914 72.1395 27.9047 72.1602 27.8523C72.172 27.8153 72.1837 27.6889 72.1837 27.5686C72.1837 27.399 72.2132 27.3158 72.3163 27.1955C72.4489 27.0414 72.4519 27.0383 72.9174 27.0414C73.3771 27.0414 73.4537 27.0167 73.4566 26.8687C73.4566 26.7577 73.2946 26.7299 72.8438 26.7577ZM35.8886 26.7885C35.8473 26.8317 35.8444 28.8421 35.8856 28.95C35.9003 28.9931 35.9652 29.0271 36.027 29.0271H36.139L36.1449 28.176C36.1479 27.7074 36.1567 27.2356 36.1655 27.1246C36.1744 27.0167 36.1655 26.9026 36.1479 26.8718C36.1066 26.8039 35.9298 26.7453 35.8886 26.7885ZM65.3036 26.8563C64.9795 27.0629 64.9412 27.5131 65.2241 27.8338L65.3773 28.0095L65.9371 28.028C66.6266 28.0558 66.7209 28.099 66.7003 28.4011C66.6826 28.6817 66.5765 28.7311 65.9636 28.7311C65.6071 28.7311 65.4303 28.7095 65.3125 28.6509C65.1121 28.5522 65.0325 28.6046 65.1003 28.7927C65.1651 28.9685 65.3714 29.0271 65.9283 29.0271C66.5088 29.0271 66.715 28.9716 66.8712 28.7742C67.0155 28.5985 67.0362 28.2716 66.9213 28.0373C66.8064 27.8029 66.6119 27.732 66.0137 27.7043C65.5158 27.6827 65.4745 27.6734 65.3861 27.5563C65.2712 27.4021 65.2712 27.3435 65.392 27.1832C65.4893 27.0568 65.504 27.0537 66.0078 27.0537C66.3879 27.0537 66.5647 27.0722 66.6708 27.1308C66.8564 27.2325 66.9419 27.1647 66.8594 26.9797C66.7798 26.7978 66.6296 26.7577 66.0108 26.7577C65.5423 26.7577 65.4362 26.7731 65.3036 26.8563ZM74.9535 26.7885C74.8886 26.8563 74.9152 28.3795 74.9829 28.5491C75.1185 28.8821 75.4013 29.0271 75.9052 29.0271C76.2529 29.0271 76.3531 28.9839 76.3265 28.8482C76.3118 28.7681 76.2529 28.7526 75.9081 28.7249C75.4485 28.691 75.3188 28.654 75.2658 28.5399C75.2452 28.4967 75.2157 28.0835 75.2039 27.621C75.1803 26.8224 75.1745 26.7793 75.0831 26.7669C75.0301 26.7577 74.9711 26.7669 74.9535 26.7885ZM94.0027 26.8255C93.764 26.9365 93.7375 27.0414 93.7346 27.8338C93.7287 28.6509 93.7876 28.8914 94.0027 28.9777C94.0705 29.0055 94.4741 29.0271 94.8955 29.0271C95.5378 29.0271 95.6704 29.0147 95.694 28.9531C95.7087 28.913 95.7087 28.8451 95.694 28.8051C95.6704 28.7434 95.5437 28.7311 94.9367 28.7311C94.5242 28.7311 94.1677 28.7095 94.1176 28.6817C94.041 28.6385 94.0263 28.5738 94.0263 28.321V28.0157L94.8454 28.0311C95.6262 28.0465 95.6645 28.0435 95.6881 27.951C95.7411 27.7444 95.6793 27.7289 94.8454 27.7228L94.0498 27.7197L94.0351 27.5008C94.0263 27.3805 94.0322 27.2325 94.0469 27.1678C94.0763 27.0537 94.0763 27.0537 94.8749 27.0537H95.6763V26.7577H94.9102C94.3739 26.7608 94.1029 26.7793 94.0027 26.8255ZM98.6965 26.9396V27.1277H98.1396C97.5326 27.1277 97.4118 27.1678 97.2468 27.4329C97.179 27.5439 97.1643 27.6765 97.1643 28.1791V28.7896L97.3028 28.913C97.4324 29.0332 97.4619 29.0363 97.9422 29.0209C98.3842 29.0055 98.4667 28.987 98.6199 28.8791C98.9322 28.657 98.9852 28.4659 98.9705 27.5655L98.9558 26.7823L98.8261 26.7669C98.7053 26.7515 98.6965 26.7608 98.6965 26.9396ZM100.459 27.877L100.467 29.0024H100.703V26.7823L100.45 26.7515L100.459 27.877ZM102.156 26.8348C102.141 26.8748 102.138 27.251 102.15 27.6642C102.182 28.7711 102.309 28.9685 103.016 29.0178C103.467 29.0486 103.614 29.0086 103.594 28.8667C103.582 28.765 103.546 28.7526 103.155 28.728C102.922 28.7095 102.695 28.6817 102.654 28.6632C102.492 28.5861 102.456 28.4042 102.447 27.6087C102.442 27.1801 102.436 26.8132 102.43 26.7947C102.418 26.7238 102.185 26.7577 102.156 26.8348ZM105.082 27.88L105.09 29.0024H105.326L105.335 27.88L105.341 26.7577H105.073L105.082 27.88ZM41.5252 27.0969C40.9949 27.1277 40.989 27.1277 40.8534 27.288C40.7592 27.399 40.715 27.5008 40.715 27.6179C40.715 28.0188 40.933 28.1884 41.4398 28.1884C41.8788 28.1884 41.9908 28.2408 41.9908 28.4566C41.9908 28.5491 41.9643 28.6447 41.9289 28.6663C41.8965 28.6879 41.6284 28.7187 41.3308 28.7311C40.8475 28.7526 40.7857 28.765 40.7709 28.8482C40.7444 28.9839 40.824 29.0116 41.2276 29.0209C41.9996 29.0394 42.2737 28.8883 42.2707 28.4443C42.2678 28.0465 42.147 27.9633 41.5223 27.9232C41.2335 27.9078 41.0656 27.8739 41.0391 27.8338C40.9801 27.7351 40.9919 27.5748 41.0656 27.4699C41.1245 27.3867 41.2041 27.3713 41.6519 27.3559C42.0645 27.3435 42.1764 27.325 42.2 27.2634C42.2265 27.1894 42.147 27.0444 42.091 27.0599C42.0733 27.066 41.8199 27.0814 41.5252 27.0969ZM37.6211 27.1678C37.6093 27.2017 37.6064 27.6272 37.6123 28.1144L37.6241 29.0024H37.8627L37.8863 28.2007C37.8981 27.7598 37.9246 27.399 37.9452 27.399C37.9629 27.399 38.1515 27.399 38.3577 27.399C38.6995 27.399 38.7496 27.4114 38.8528 27.5193C38.9647 27.6364 38.9706 27.6642 38.9706 28.3117C38.9706 28.8636 38.9824 28.987 39.0413 29.0086C39.0796 29.0271 39.1445 29.0116 39.1828 28.9777C39.2888 28.8852 39.2829 27.7012 39.1739 27.4638C39.0413 27.1709 38.9323 27.1277 38.2517 27.1154C37.8008 27.1092 37.6388 27.1215 37.6211 27.1678ZM43.7675 27.1339C43.7145 27.1894 43.7292 28.2593 43.7882 28.4412C43.909 28.8205 44.1683 28.9808 44.6986 29.0116C45.3675 29.0486 45.4441 28.9253 45.4235 27.8215L45.4088 27.1277H45.1259L45.0787 28.7064L44.8342 28.7218C44.4924 28.7434 44.2243 28.657 44.1241 28.4967C44.0592 28.395 44.0357 28.2223 44.018 27.7474C43.9974 27.1709 43.9885 27.1246 43.8972 27.1123C43.8442 27.103 43.7882 27.1123 43.7675 27.1339ZM47.2945 27.1431C47.1059 27.2079 46.935 27.3959 46.8909 27.5809C46.8702 27.6858 46.8496 28.028 46.8496 28.3425C46.8496 28.7927 46.8643 28.9315 46.9174 28.9777C46.9586 29.0116 47.0205 29.0271 47.0559 29.0116C47.1089 28.9901 47.1266 28.8297 47.1384 28.2685C47.1501 27.7659 47.1737 27.5316 47.2179 27.4884C47.2562 27.4453 47.4654 27.4144 47.8072 27.399C48.3317 27.3744 48.3346 27.3744 48.3346 27.251C48.3346 27.1277 48.3317 27.1277 47.8632 27.1184C47.6039 27.1154 47.3476 27.1246 47.2945 27.1431ZM50.023 27.1616C49.8727 27.2387 49.805 27.5069 49.805 28.025C49.8079 28.839 50.0024 29.0394 50.7655 29.0147L51.2134 29.0024V28.5892C51.2134 28.2439 51.1987 28.1637 51.1279 28.1205C51.0189 28.0465 50.9541 28.1483 50.9541 28.395C50.9511 28.7033 50.9246 28.7311 50.6241 28.7311C50.1968 28.7311 50.132 28.6509 50.1114 28.0928C50.1026 27.8461 50.1084 27.5871 50.1232 27.5193C50.1526 27.4021 50.1674 27.399 50.5504 27.399C51.2664 27.399 51.3342 27.4792 51.3666 28.3672C51.3872 28.8575 51.4049 28.9931 51.4609 29.0147C51.5021 29.0301 51.564 29.0024 51.6023 28.95C51.6966 28.8174 51.6613 27.7845 51.5552 27.5717C51.4609 27.3805 51.2959 27.2233 51.1279 27.1554C50.957 27.0876 50.1615 27.0938 50.023 27.1616ZM53.1817 27.1369C53.0756 27.1585 53.0756 27.1647 53.0756 28.0157C53.0756 28.4844 53.0903 28.9068 53.105 28.95C53.1375 29.0425 53.3408 29.0548 53.3702 28.9654C53.382 28.9315 53.3938 28.5923 53.3968 28.213C53.3997 27.8338 53.4056 27.4854 53.4056 27.4422C53.4056 27.3713 53.4527 27.362 53.7238 27.3805C54.2159 27.4144 54.3367 27.4422 54.3809 27.5347C54.4015 27.5809 54.431 27.9325 54.4428 28.3117L54.4663 29.0024H54.705L54.7168 28.361C54.7345 27.6488 54.6932 27.4237 54.5135 27.2479C54.3986 27.1339 54.3544 27.1277 53.8387 27.1215C53.5352 27.1184 53.2406 27.1246 53.1817 27.1369ZM56.7705 27.1739C56.3786 27.3528 56.0869 27.88 56.1871 28.2315C56.4022 28.9931 57.2685 29.2614 57.7989 28.7311C58.0964 28.435 57.9963 28.25 57.678 28.5029C57.1506 28.9253 56.4729 28.6601 56.4729 28.0342C56.4729 27.6919 56.7911 27.399 57.1565 27.399C57.3245 27.399 57.6663 27.547 57.7222 27.6457C57.7399 27.6734 57.793 27.695 57.843 27.695C57.9904 27.695 57.9609 27.4792 57.793 27.3312C57.5396 27.1092 57.074 27.0383 56.7705 27.1739ZM60.0117 27.1801C59.5078 27.4083 59.2927 28.0342 59.5579 28.506C59.8791 29.0733 60.601 29.1843 61.0518 28.7341C61.3523 28.435 61.2875 28.2408 60.9693 28.4844C60.8662 28.5645 60.6835 28.657 60.5627 28.691C60.3712 28.7434 60.3181 28.7403 60.1207 28.654C59.941 28.5769 59.8761 28.5152 59.7936 28.3364C59.6581 28.0527 59.6876 27.8523 59.8968 27.6118C60.0411 27.4484 60.0853 27.4268 60.3446 27.4083C60.6128 27.3867 60.6452 27.399 60.878 27.5655C61.0164 27.6642 61.1402 27.7444 61.1579 27.7444C61.2404 27.7444 61.1785 27.4792 61.0724 27.3682C60.8249 27.1092 60.3535 27.0259 60.0117 27.1801ZM68.9986 27.2202C68.5743 27.4514 68.3592 27.9479 68.5153 28.3425C68.7127 28.839 69.1753 29.0949 69.6645 28.9808C70.1153 28.876 70.4365 28.4782 70.4365 28.0188C70.4365 27.7999 70.2626 27.4669 70.0593 27.2973C69.9061 27.1709 69.8206 27.14 69.5554 27.1215C69.2755 27.0969 69.2048 27.1092 68.9986 27.2202ZM75.2658 27.177C75.198 27.362 75.2776 27.399 75.7431 27.399C76.1851 27.399 76.1939 27.3959 76.1939 27.2788C76.1939 27.1277 76.1203 27.103 75.6695 27.103C75.3778 27.103 75.2864 27.1184 75.2658 27.177ZM77.8293 27.1339C77.7792 27.1863 77.7939 28.1945 77.8469 28.398C77.9884 28.9253 78.6189 29.209 78.9106 28.8729C79.0756 28.6848 79.1552 28.6663 79.2672 28.802C79.5323 29.1226 80.0244 29.0579 80.3014 28.6663C80.4134 28.506 80.487 28.0003 80.4634 27.5717C80.4546 27.436 80.4458 27.2726 80.4428 27.2109C80.4399 27.1154 80.4163 27.0969 80.3102 27.1123L80.1806 27.1277L80.157 27.7845L80.1334 28.4443L79.9773 28.5861C79.8123 28.7434 79.7533 28.7557 79.5707 28.6848C79.3438 28.5923 79.2848 28.4196 79.2583 27.7474L79.2347 27.1277H78.999L78.9755 27.7783C78.9548 28.4165 78.9489 28.432 78.8134 28.58C78.6543 28.7557 78.5394 28.7681 78.3302 28.6355C78.1328 28.509 78.0797 28.2994 78.0797 27.6334C78.0797 27.1092 78.0797 27.103 77.9707 27.103C77.9088 27.103 77.8469 27.1184 77.8293 27.1339ZM82.1017 27.1339C81.9573 27.1955 81.8925 27.4545 81.8925 27.9725C81.8925 28.8297 82.0634 29.0271 82.8089 29.0271C83.3009 29.0271 83.3216 29.0055 83.2892 28.509C83.2685 28.1483 83.2273 28.0589 83.1094 28.1051C83.0593 28.1267 83.0358 28.2192 83.024 28.4196L83.0092 28.7064L82.7028 28.7218C82.2461 28.7434 82.2107 28.7002 82.1931 28.1175C82.1665 27.3805 82.1547 27.399 82.635 27.399C83.0741 27.399 83.2597 27.4638 83.354 27.6519C83.3893 27.7228 83.4188 28.0065 83.4276 28.3487C83.4394 28.9346 83.4748 29.0548 83.6162 28.9993C83.7311 28.9531 83.7577 28.7804 83.7311 28.2161C83.6987 27.5655 83.5661 27.2973 83.2066 27.1554C83.0741 27.103 82.2166 27.0876 82.1017 27.1339ZM85.5049 27.2017C85.2368 27.3435 85.1897 27.473 85.169 28.1637C85.1484 28.7804 85.1926 29.0271 85.3223 29.0271C85.4224 29.0271 85.4283 28.9962 85.4607 28.2377C85.4843 27.7444 85.5079 27.5532 85.5609 27.4977C85.611 27.4453 85.776 27.4144 86.1384 27.399L86.6423 27.3744L86.6718 27.103H86.1856C85.7907 27.103 85.6611 27.1215 85.5049 27.2017ZM88.7667 27.1585C88.584 27.2294 88.2953 27.5193 88.201 27.7228C87.9181 28.3456 88.5428 29.1134 89.2382 29.0055C89.6006 28.9469 89.9777 28.6108 89.9041 28.4073C89.8776 28.3364 89.854 28.3395 89.7096 28.4566C89.3531 28.7403 89.0879 28.7927 88.7903 28.6324C88.4308 28.4412 88.31 28.0527 88.5045 27.7197C88.7225 27.3528 89.1969 27.2942 89.6242 27.5871C89.8776 27.7598 89.9689 27.732 89.8805 27.5131C89.7892 27.2849 89.5417 27.1431 89.2028 27.1215C89.0408 27.1123 88.8433 27.1277 88.7667 27.1585ZM102.536 27.177C102.468 27.3589 102.548 27.399 102.987 27.399C103.423 27.399 103.49 27.3682 103.437 27.2017C103.411 27.1123 103.367 27.103 102.987 27.103C102.654 27.103 102.556 27.1184 102.536 27.177ZM107.409 27.1709C106.714 27.4422 106.605 28.398 107.215 28.8236C107.501 29.0178 107.772 29.061 108.075 28.9561C108.405 28.8421 108.726 28.4967 108.747 28.2377C108.782 27.7721 108.635 27.4422 108.311 27.251C108.075 27.1123 107.654 27.0753 107.409 27.1709ZM110.226 27.1739C110.214 27.2048 110.211 27.6272 110.217 28.1144L110.232 29.0024L110.491 29.0332V28.2192C110.491 27.7721 110.506 27.3959 110.527 27.3867C110.544 27.3744 110.751 27.3805 110.978 27.3959C111.564 27.4329 111.576 27.4514 111.576 28.3117C111.576 28.9931 111.59 29.0394 111.776 28.9901C111.85 28.9685 111.859 28.8914 111.859 28.2685C111.859 27.473 111.806 27.3034 111.502 27.1709C111.296 27.0814 110.259 27.0814 110.226 27.1739ZM98.6346 27.3374C98.6081 27.3805 98.4519 27.399 98.1367 27.399C97.5473 27.399 97.509 27.4268 97.4678 27.8739C97.4531 28.0589 97.4501 28.324 97.4678 28.4597L97.4943 28.7064L97.9127 28.7218C98.393 28.7372 98.5197 28.6817 98.6317 28.4042C98.7053 28.2192 98.7083 27.2171 98.6346 27.3374ZM69.087 27.4977C68.7923 27.6519 68.6744 28.025 68.8218 28.3364C69.0369 28.7896 69.7352 28.8421 70.0269 28.4258C70.1654 28.2285 70.1536 27.8276 70.0063 27.658C69.7705 27.3929 69.414 27.3281 69.087 27.4977ZM107.412 27.4977C106.92 27.7783 107.014 28.5275 107.565 28.6817C108.102 28.8328 108.541 28.4227 108.444 27.8677C108.373 27.4823 107.801 27.2757 107.412 27.4977ZM59.9645 27.9263C59.8054 27.988 59.7701 28.0496 59.8585 28.1205C59.9822 28.2192 60.9222 28.213 61.0017 28.1144C61.0489 28.0558 61.0489 28.025 61.0017 27.9664C60.9575 27.9078 60.8397 27.8924 60.489 27.8955C60.2386 27.8985 60.0028 27.9109 59.9645 27.9263ZM88.6341 27.9263C88.5781 27.9417 88.5516 27.988 88.5634 28.0558C88.5752 28.1606 88.5988 28.1637 89.1439 28.1637C89.6595 28.1637 89.7096 28.1545 89.7243 28.0712C89.7332 28.0188 89.7126 27.9602 89.6772 27.9355C89.6124 27.8924 88.7874 27.8862 88.6341 27.9263Z" fill="#7371FF"/>
</svg>
