<svg width="27" height="26" viewBox="0 0 27 26" fill="none" xmlns="http://www.w3.org/2000/svg">
<path d="M13.67 0C11.0988 0 8.58541 0.762437 6.44758 2.1909C4.30974 3.61935 2.64349 5.64968 1.65955 8.02512C0.675616 10.4006 0.418172 13.0144 0.91978 15.5362C1.42139 18.0579 2.65952 20.3743 4.4776 22.1924C6.29568 24.0105 8.61206 25.2486 11.1338 25.7502C13.6556 26.2518 16.2694 25.9944 18.6449 25.0104C21.0203 24.0265 23.0506 22.3603 24.4791 20.2224C25.9076 18.0846 26.67 15.5712 26.67 13C26.6663 9.5533 25.2955 6.24882 22.8584 3.81163C20.4212 1.37445 17.1167 0.00363977 13.67 0ZM13.67 24C11.4944 24 9.36766 23.3549 7.55872 22.1462C5.74977 20.9375 4.33988 19.2195 3.50731 17.2095C2.67475 15.1995 2.45691 12.9878 2.88135 10.854C3.30579 8.72022 4.35344 6.7602 5.89181 5.22183C7.43019 3.68345 9.3902 2.6358 11.524 2.21136C13.6578 1.78692 15.8695 2.00476 17.8795 2.83733C19.8895 3.66989 21.6075 5.07979 22.8162 6.88873C24.0249 8.69767 24.67 10.8244 24.67 13C24.6667 15.9164 23.5067 18.7123 21.4445 20.7745C19.3823 22.8367 16.5864 23.9967 13.67 24ZM11.67 7C11.67 6.60444 11.7873 6.21776 12.007 5.88886C12.2268 5.55996 12.5392 5.30362 12.9046 5.15224C13.2701 5.00087 13.6722 4.96126 14.0602 5.03843C14.4481 5.1156 14.8045 5.30608 15.0842 5.58579C15.3639 5.86549 15.5544 6.22186 15.6316 6.60982C15.7087 6.99778 15.6691 7.39991 15.5177 7.76537C15.3664 8.13082 15.11 8.44318 14.7811 8.66294C14.4522 8.8827 14.0656 9 13.67 9C13.1396 9 12.6308 8.78929 12.2558 8.41421C11.8807 8.03914 11.67 7.53043 11.67 7ZM20.67 11C20.67 11.2652 20.5646 11.5196 20.3771 11.7071C20.1896 11.8946 19.9352 12 19.67 12H14.67V13.6975L18.5025 19.4475C18.6497 19.6683 18.7031 19.9385 18.6511 20.1987C18.5991 20.4589 18.4458 20.6878 18.225 20.835C18.0042 20.9822 17.734 21.0357 17.4738 20.9836C17.2136 20.9316 16.9847 20.7783 16.8375 20.5575L13.67 15.8075L10.5025 20.5575C10.4296 20.6668 10.3359 20.7607 10.2267 20.8338C10.1176 20.9069 9.99505 20.9578 9.86621 20.9836C9.606 21.0357 9.33578 20.9822 9.11499 20.835C8.8942 20.6878 8.74092 20.4589 8.68888 20.1987C8.63684 19.9385 8.69029 19.6683 8.83749 19.4475L12.67 13.6975V12H7.66999C7.40477 12 7.15042 11.8946 6.96288 11.7071C6.77535 11.5196 6.66999 11.2652 6.66999 11C6.66999 10.7348 6.77535 10.4804 6.96288 10.2929C7.15042 10.1054 7.40477 10 7.66999 10H19.67C19.9352 10 20.1896 10.1054 20.3771 10.2929C20.5646 10.4804 20.67 10.7348 20.67 11Z" fill="#F9F8FF"/>
</svg>
