<svg width="33" height="36" viewBox="0 0 33 36" fill="none" xmlns="http://www.w3.org/2000/svg">
<path d="M26.67 14C27.2004 14 27.7091 13.7893 28.0842 13.4142C28.4593 13.0391 28.67 12.5304 28.67 12V8C28.67 7.46957 28.4593 6.96086 28.0842 6.58579C27.7091 6.21071 27.2004 6 26.67 6H22.67C22.1395 6 21.6308 6.21071 21.2558 6.58579C20.8807 6.96086 20.67 7.46957 20.67 8V9H12.67V8C12.67 7.46957 12.4593 6.96086 12.0842 6.58579C11.7091 6.21071 11.2004 6 10.67 6H6.66998C6.13955 6 5.63084 6.21071 5.25577 6.58579C4.8807 6.96086 4.66998 7.46957 4.66998 8V12C4.66998 12.5304 4.8807 13.0391 5.25577 13.4142C5.63084 13.7893 6.13955 14 6.66998 14H7.66998V22H6.66998C6.13955 22 5.63084 22.2107 5.25577 22.5858C4.8807 22.9609 4.66998 23.4696 4.66998 24V28C4.66998 28.5304 4.8807 29.0391 5.25577 29.4142C5.63084 29.7893 6.13955 30 6.66998 30H10.67C11.2004 30 11.7091 29.7893 12.0842 29.4142C12.4593 29.0391 12.67 28.5304 12.67 28V27H20.67V28C20.67 28.5304 20.8807 29.0391 21.2558 29.4142C21.6308 29.7893 22.1395 30 22.67 30H26.67C27.2004 30 27.7091 29.7893 28.0842 29.4142C28.4593 29.0391 28.67 28.5304 28.67 28V24C28.67 23.4696 28.4593 22.9609 28.0842 22.5858C27.7091 22.2107 27.2004 22 26.67 22H25.67V14H26.67ZM22.67 8H26.67V12H22.67V8ZM6.66998 8H10.67V9.9875C10.6683 9.99575 10.6683 10.0042 10.67 10.0125V12H6.66998V8ZM10.67 28H6.66998V24H10.67V25.9875C10.6683 25.9958 10.6683 26.0042 10.67 26.0125V28ZM26.67 28H22.67V24H26.67V28ZM23.67 22H22.67C22.1395 22 21.6308 22.2107 21.2558 22.5858C20.8807 22.9609 20.67 23.4696 20.67 24V25H12.67V24C12.67 23.4696 12.4593 22.9609 12.0842 22.5858C11.7091 22.2107 11.2004 22 10.67 22H9.66998V14H10.67C11.2004 14 11.7091 13.7893 12.0842 13.4142C12.4593 13.0391 12.67 12.5304 12.67 12V11H20.67V12C20.67 12.5304 20.8807 13.0391 21.2558 13.4142C21.6308 13.7893 22.1395 14 22.67 14H23.67V22Z" fill="#6866E6"/>
</svg>
