<svg width="24" height="25" viewBox="0 0 24 25" fill="none" xmlns="http://www.w3.org/2000/svg">
<path d="M22 0H1.99998C1.46955 0 0.960844 0.210714 0.585771 0.585786C0.210698 0.960859 -1.52588e-05 1.46957 -1.52588e-05 2V9C-1.52588e-05 15.59 3.18998 19.5837 5.86623 21.7738C8.74873 24.1313 11.6162 24.9325 11.7412 24.965C11.9131 25.0118 12.0944 25.0118 12.2662 24.965C12.3912 24.9325 15.255 24.1313 18.1412 21.7738C20.81 19.5837 24 15.59 24 9V2C24 1.46957 23.7893 0.960859 23.4142 0.585786C23.0391 0.210714 22.5304 0 22 0ZM22 9C22 13.6337 20.2925 17.395 16.925 20.1775C15.4591 21.3846 13.7919 22.324 12 22.9525C10.2315 22.335 8.58492 21.4123 7.13498 20.2262C3.72748 17.4387 1.99998 13.6625 1.99998 9V2H22V9Z" fill="#6866E6"/>
</svg>
