<svg width="32" height="36" viewBox="0 0 32 36" fill="none" xmlns="http://www.w3.org/2000/svg">
<path d="M21.75 7.96896C20.206 6.18575 18.4682 4.58002 16.5687 3.18146C16.4006 3.06367 16.2003 3.00049 15.995 3.00049C15.7897 3.00049 15.5894 3.06367 15.4212 3.18146C13.5253 4.58061 11.7909 6.18631 10.25 7.96896C6.81373 11.9152 4.99998 16.0752 4.99998 20.0002C4.99998 22.9176 6.15891 25.7155 8.22181 27.7784C10.2847 29.8413 13.0826 31.0002 16 31.0002C18.9174 31.0002 21.7153 29.8413 23.7782 27.7784C25.8411 25.7155 27 22.9176 27 20.0002C27 16.0752 25.1862 11.9152 21.75 7.96896ZM16 29.0002C13.6138 28.9976 11.3262 28.0485 9.63895 26.3612C7.95169 24.674 7.00263 22.3863 6.99998 20.0002C6.99998 12.8465 13.9337 6.87521 16 5.25021C18.0662 6.87521 25 12.844 25 20.0002C24.9973 22.3863 24.0483 24.674 22.361 26.3612C20.6738 28.0485 18.3861 28.9976 16 29.0002ZM22.9862 21.1677C22.7269 22.6161 22.0301 23.9503 20.9895 24.9906C19.949 26.0309 18.6147 26.7275 17.1662 26.9865C17.1112 26.9953 17.0557 26.9999 17 27.0002C16.7491 27.0001 16.5075 26.9058 16.3229 26.7359C16.1384 26.566 16.0244 26.333 16.0037 26.083C15.9829 25.833 16.0569 25.5844 16.2108 25.3863C16.3648 25.1883 16.5876 25.0554 16.835 25.014C18.9062 24.6652 20.6637 22.9077 21.015 20.8327C21.0594 20.5711 21.2059 20.3379 21.4223 20.1844C21.6387 20.0308 21.9072 19.9695 22.1687 20.014C22.4303 20.0584 22.6635 20.2049 22.8171 20.4213C22.9706 20.6376 23.0319 20.9061 22.9875 21.1677H22.9862Z" fill="#F9F8FF"/>
</svg>
