<svg width="33" height="36" viewBox="0 0 33 36" fill="none" xmlns="http://www.w3.org/2000/svg">
<path d="M26.4999 14C27.0304 14 27.5391 13.7893 27.9142 13.4142C28.2892 13.0391 28.4999 12.5304 28.4999 12V8C28.4999 7.46957 28.2892 6.96086 27.9142 6.58579C27.5391 6.21071 27.0304 6 26.4999 6H22.4999C21.9695 6 21.4608 6.21071 21.0857 6.58579C20.7107 6.96086 20.4999 7.46957 20.4999 8V9H12.4999V8C12.4999 7.46957 12.2892 6.96086 11.9142 6.58579C11.5391 6.21071 11.0304 6 10.4999 6H6.49994C5.96951 6 5.4608 6.21071 5.08573 6.58579C4.71065 6.96086 4.49994 7.46957 4.49994 8V12C4.49994 12.5304 4.71065 13.0391 5.08573 13.4142C5.4608 13.7893 5.96951 14 6.49994 14H7.49994V22H6.49994C5.96951 22 5.4608 22.2107 5.08573 22.5858C4.71065 22.9609 4.49994 23.4696 4.49994 24V28C4.49994 28.5304 4.71065 29.0391 5.08573 29.4142C5.4608 29.7893 5.96951 30 6.49994 30H10.4999C11.0304 30 11.5391 29.7893 11.9142 29.4142C12.2892 29.0391 12.4999 28.5304 12.4999 28V27H20.4999V28C20.4999 28.5304 20.7107 29.0391 21.0857 29.4142C21.4608 29.7893 21.9695 30 22.4999 30H26.4999C27.0304 30 27.5391 29.7893 27.9142 29.4142C28.2892 29.0391 28.4999 28.5304 28.4999 28V24C28.4999 23.4696 28.2892 22.9609 27.9142 22.5858C27.5391 22.2107 27.0304 22 26.4999 22H25.4999V14H26.4999ZM22.4999 8H26.4999V12H22.4999V8ZM6.49994 8H10.4999V9.9875C10.4983 9.99575 10.4983 10.0042 10.4999 10.0125V12H6.49994V8ZM10.4999 28H6.49994V24H10.4999V25.9875C10.4983 25.9958 10.4983 26.0042 10.4999 26.0125V28ZM26.4999 28H22.4999V24H26.4999V28ZM23.4999 22H22.4999C21.9695 22 21.4608 22.2107 21.0857 22.5858C20.7107 22.9609 20.4999 23.4696 20.4999 24V25H12.4999V24C12.4999 23.4696 12.2892 22.9609 11.9142 22.5858C11.5391 22.2107 11.0304 22 10.4999 22H9.49994V14H10.4999C11.0304 14 11.5391 13.7893 11.9142 13.4142C12.2892 13.0391 12.4999 12.5304 12.4999 12V11H20.4999V12C20.4999 12.5304 20.7107 13.0391 21.0857 13.4142C21.4608 13.7893 21.9695 14 22.4999 14H23.4999V22Z" fill="#6866E6"/>
</svg>
