<svg width="91" height="30" viewBox="0 0 91 30" fill="none" xmlns="http://www.w3.org/2000/svg">
<g clip-path="url(#clip0_240_31962)">
<path d="M84.3056 0.375H6.3056C3.199 0.375 0.680603 2.8934 0.680603 6V24C0.680603 27.1066 3.199 29.625 6.3056 29.625H84.3056C87.4122 29.625 89.9306 27.1066 89.9306 24V6C89.9306 2.8934 87.4122 0.375 84.3056 0.375Z" fill="black"/>
<path d="M84.3056 0.375H6.3056C3.199 0.375 0.680603 2.8934 0.680603 6V24C0.680603 27.1066 3.199 29.625 6.3056 29.625H84.3056C87.4122 29.625 89.9306 27.1066 89.9306 24V6C89.9306 2.8934 87.4122 0.375 84.3056 0.375Z" stroke="#A6A6A6"/>
<path d="M18.8831 15.2252C18.8912 14.5993 19.0574 13.9855 19.3664 13.441C19.6754 12.8965 20.1172 12.4391 20.6505 12.1112C20.3117 11.6273 19.8647 11.2291 19.3451 10.9482C18.8255 10.6673 18.2475 10.5114 17.6571 10.4929C16.3977 10.3607 15.1768 11.2465 14.5349 11.2465C13.8808 11.2465 12.8927 10.5061 11.8286 10.528C11.1404 10.5502 10.4696 10.7503 9.88163 11.1089C9.29378 11.4674 8.80876 11.9722 8.47388 12.5739C7.0234 15.0852 8.10533 18.7759 9.49478 20.8059C10.19 21.7999 11.0024 22.9102 12.0655 22.8709C13.1058 22.8277 13.4943 22.2076 14.75 22.2076C15.9941 22.2076 16.3586 22.8709 17.4433 22.8459C18.5596 22.8277 19.2629 21.8474 19.9337 20.844C20.4332 20.1358 20.8175 19.3529 21.0725 18.5246C20.424 18.2503 19.8706 17.7912 19.4812 17.2045C19.0919 16.6177 18.8838 15.9294 18.8831 15.2252Z" fill="white"/>
<path d="M16.8343 9.15803C17.443 8.42731 17.7428 7.48821 17.6702 6.54004C16.7404 6.6377 15.8814 7.08212 15.2645 7.78471C14.9629 8.12798 14.7319 8.52728 14.5848 8.95988C14.4376 9.39248 14.3771 9.84983 14.4067 10.3058C14.8719 10.3106 15.332 10.2098 15.7525 10.0109C16.173 9.81211 16.5429 9.52051 16.8343 9.15803Z" fill="white"/>
<path d="M32.0325 20.3548H28.4824L27.6298 22.8721H26.1262L29.4888 13.5586H31.051L34.4136 22.8721H32.8842L32.0325 20.3548ZM28.8501 19.1931H31.6641L30.2769 15.1077H30.238L28.8501 19.1931Z" fill="white"/>
<path d="M41.6755 19.4775C41.6755 21.5877 40.5461 22.9434 38.8418 22.9434C38.41 22.9659 37.9807 22.8665 37.6028 22.6564C37.225 22.4463 36.9139 22.134 36.7053 21.7554H36.673V25.1187H35.2792V16.0821H36.6284V17.2115H36.6541C36.8722 16.8346 37.1886 16.524 37.5693 16.3126C37.95 16.1012 38.3809 15.9969 38.8162 16.011C40.5395 16.011 41.6755 17.3733 41.6755 19.4775ZM40.2429 19.4775C40.2429 18.1028 39.5325 17.199 38.4484 17.199C37.3835 17.199 36.6672 18.1218 36.6672 19.4775C36.6672 20.8458 37.3835 21.762 38.4484 21.762C39.5325 21.762 40.2429 20.8648 40.2429 19.4775Z" fill="white"/>
<path d="M49.1492 19.4775C49.1492 21.5876 48.0198 22.9433 46.3154 22.9433C45.8837 22.9659 45.4544 22.8665 45.0765 22.6564C44.6987 22.4463 44.3876 22.134 44.179 21.7553H44.1467V25.1186H42.7529V16.082H44.102V17.2115H44.1277C44.3459 16.8346 44.6622 16.5239 45.0429 16.3126C45.4236 16.1012 45.8546 15.997 46.2898 16.011C48.0132 16.011 49.1492 17.3733 49.1492 19.4775ZM47.7166 19.4775C47.7166 18.1028 47.0061 17.199 45.9221 17.199C44.8572 17.199 44.1409 18.1218 44.1409 19.4775C44.1409 20.8457 44.8572 21.7619 45.9221 21.7619C47.0061 21.7619 47.7166 20.8648 47.7166 19.4775Z" fill="white"/>
<path d="M54.0887 20.2771C54.1919 21.2007 55.0892 21.8071 56.3152 21.8071C57.49 21.8071 58.3352 21.2007 58.3352 20.3679C58.3352 19.645 57.8255 19.2121 56.6184 18.9155L55.4114 18.6247C53.7012 18.2116 52.9073 17.4118 52.9073 16.114C52.9073 14.507 54.3077 13.4033 56.2961 13.4033C58.2641 13.4033 59.6133 14.507 59.6587 16.114H58.2517C58.1675 15.1846 57.3992 14.6235 56.2763 14.6235C55.1536 14.6235 54.3853 15.1912 54.3853 16.0173C54.3853 16.6757 54.876 17.0632 56.0764 17.3598L57.1025 17.6118C59.0134 18.0637 59.8073 18.8313 59.8073 20.1935C59.8073 21.936 58.4195 23.0273 56.2119 23.0273C54.1465 23.0273 52.7519 21.9616 52.6619 20.2771H54.0887Z" fill="white"/>
<path d="M62.8154 14.4746V16.0816H64.1067V17.1853H62.8154V20.9287C62.8154 21.5103 63.074 21.7813 63.6416 21.7813C63.7949 21.7786 63.9479 21.7678 64.1001 21.749V22.8462C63.8449 22.8939 63.5855 22.9155 63.326 22.9106C61.9512 22.9106 61.415 22.3943 61.415 21.0774V17.1853H60.4277V16.0816H61.415V14.4746H62.8154Z" fill="white"/>
<path d="M64.8545 19.477C64.8545 17.3405 66.1128 15.998 68.0749 15.998C70.0437 15.998 71.2962 17.3405 71.2962 19.477C71.2962 21.6194 70.0503 22.956 68.0749 22.956C66.1003 22.956 64.8545 21.6194 64.8545 19.477ZM69.876 19.477C69.876 18.0114 69.2043 17.1464 68.0749 17.1464C66.9456 17.1464 66.2746 18.018 66.2746 19.477C66.2746 20.9485 66.9456 21.8069 68.0749 21.8069C69.2043 21.8069 69.876 20.9485 69.876 19.477Z" fill="white"/>
<path d="M72.4454 16.082H73.7747V17.2377H73.8069C73.8968 16.8768 74.1083 16.5578 74.4058 16.3344C74.7032 16.1109 75.0683 15.9967 75.4403 16.011C75.6008 16.0104 75.7613 16.0278 75.918 16.0629V17.3667C75.7148 17.3047 75.5033 17.2762 75.2918 17.2824C75.0893 17.2742 74.8871 17.3099 74.6998 17.3871C74.5124 17.4642 74.3439 17.581 74.206 17.7294C74.068 17.8779 73.9637 18.0544 73.9004 18.2469C73.8371 18.4394 73.8162 18.6433 73.8391 18.8447V22.8723H72.4454V16.082Z" fill="white"/>
<path d="M82.344 20.8774C82.1565 22.1101 80.9557 22.956 79.4205 22.956C77.445 22.956 76.2188 21.6326 76.2188 19.5092C76.2188 17.3794 77.4518 15.998 79.3613 15.998C81.24 15.998 82.422 17.2886 82.422 19.3474V19.8249H77.6257V19.9091C77.6032 20.159 77.6348 20.4108 77.7173 20.6477C77.8005 20.8845 77.9325 21.1011 78.105 21.2831C78.2775 21.4649 78.4875 21.608 78.7192 21.7028C78.9517 21.7975 79.2015 21.8417 79.4527 21.8325C79.782 21.8633 80.112 21.7871 80.3948 21.6149C80.6775 21.4429 80.8965 21.1842 81.0203 20.8774H82.344ZM77.6325 18.8508H81.027C81.0398 18.6261 81.0052 18.4013 80.9272 18.1904C80.8485 17.9794 80.727 17.787 80.571 17.6252C80.4143 17.4634 80.226 17.3356 80.0183 17.2499C79.8105 17.1643 79.5863 17.1226 79.3613 17.1274C79.1348 17.126 78.9097 17.1697 78.6997 17.2557C78.4897 17.3417 78.2985 17.4686 78.138 17.6288C77.9767 17.789 77.85 17.9795 77.763 18.1892C77.676 18.399 77.6318 18.6238 77.6325 18.8508Z" fill="white"/>
<path d="M28.6754 6.54805C28.9676 6.52708 29.2609 6.57122 29.534 6.67729C29.807 6.78337 30.0532 6.94873 30.2546 7.16145C30.456 7.37417 30.6077 7.62894 30.6988 7.90741C30.7898 8.18581 30.818 8.48101 30.7811 8.77171C30.7811 10.2014 30.0084 11.0232 28.6754 11.0232H27.059V6.54805H28.6754ZM27.7541 10.3903H28.5978C28.8066 10.4028 29.0156 10.3685 29.2094 10.2901C29.4034 10.2116 29.5773 10.0909 29.7187 9.93676C29.8601 9.78256 29.9653 9.59881 30.0267 9.39886C30.0881 9.19891 30.1041 8.98771 30.0736 8.78079C30.1019 8.57469 30.0842 8.36484 30.0219 8.16631C29.9596 7.96786 29.8541 7.78561 29.7131 7.63261C29.572 7.4797 29.3989 7.35985 29.2061 7.28167C29.0132 7.20349 28.8055 7.16893 28.5978 7.18045H27.7541V10.3903Z" fill="white"/>
<path d="M31.5663 9.33335C31.5451 9.11135 31.5705 8.88748 31.6409 8.6759C31.7112 8.46433 31.8251 8.26986 31.975 8.10486C32.1249 7.93986 32.3078 7.80808 32.5116 7.71785C32.7156 7.62763 32.936 7.58105 33.159 7.58105C33.3819 7.58105 33.6024 7.62763 33.8063 7.71785C34.0102 7.80808 34.193 7.93986 34.3429 8.10486C34.4929 8.26986 34.6067 8.46433 34.6771 8.6759C34.7475 8.88748 34.7729 9.11135 34.7516 9.33335C34.7733 9.5555 34.7481 9.77975 34.678 9.99163C34.6078 10.2035 34.494 10.3984 34.344 10.5637C34.194 10.729 34.0111 10.8611 33.807 10.9515C33.603 11.0419 33.3822 11.0886 33.159 11.0886C32.9358 11.0886 32.715 11.0419 32.5109 10.9515C32.3068 10.8611 32.1239 10.729 31.9739 10.5637C31.8239 10.3984 31.7102 10.2035 31.64 9.99163C31.5698 9.77975 31.5447 9.5555 31.5663 9.33335ZM34.0661 9.33335C34.0661 8.60128 33.7372 8.17318 33.1601 8.17318C32.5807 8.17318 32.2548 8.60128 32.2548 9.33335C32.2548 10.0713 32.5807 10.4961 33.1601 10.4961C33.7372 10.496 34.0661 10.0683 34.0661 9.33335Z" fill="white"/>
<path d="M38.9858 11.0237H38.2943L37.5963 8.53643H37.5436L36.8486 11.0237H36.1637L35.2328 7.64648H35.9088L36.5138 10.2235H36.5636L37.258 7.64648H37.8974L38.5917 10.2235H38.6445L39.2465 7.64648H39.913L38.9858 11.0237Z" fill="white"/>
<path d="M40.6959 7.64564H41.3375V8.18219H41.3873C41.4719 7.98944 41.6144 7.82796 41.795 7.72011C41.9756 7.61226 42.1854 7.56344 42.3952 7.58046C42.5595 7.56809 42.7245 7.59292 42.878 7.65299C43.0313 7.71307 43.1693 7.80689 43.2816 7.92749C43.3939 8.04816 43.4775 8.19247 43.5264 8.34982C43.5753 8.50724 43.5882 8.67359 43.5641 8.83656V11.0228H42.8976V9.00397C42.8976 8.46119 42.6617 8.19134 42.1688 8.19134C42.0572 8.18609 41.9459 8.20514 41.8424 8.24699C41.7388 8.28884 41.6456 8.35259 41.569 8.43389C41.4923 8.51519 41.4342 8.61209 41.3986 8.71792C41.363 8.82382 41.3506 8.93609 41.3624 9.04717V11.0229H40.6959V7.64564Z" fill="white"/>
<path d="M44.6261 6.32812H45.2925V11.0237H44.6261V6.32812Z" fill="white"/>
<path d="M46.2191 9.33343C46.1979 9.11143 46.2233 8.88748 46.2937 8.67591C46.3641 8.46441 46.4779 8.26986 46.6279 8.10486C46.7779 7.93986 46.9606 7.80808 47.1646 7.71786C47.3685 7.62763 47.589 7.58105 47.812 7.58105C48.0349 7.58105 48.2554 7.62763 48.4593 7.71786C48.6632 7.80808 48.846 7.93986 48.996 8.10486C49.146 8.26986 49.2598 8.46441 49.3302 8.67591C49.4006 8.88748 49.426 9.11143 49.4047 9.33343C49.4264 9.55558 49.4013 9.77983 49.3311 9.9917C49.2608 10.2036 49.147 10.3984 48.997 10.5637C48.847 10.729 48.6641 10.8612 48.46 10.9516C48.2559 11.0419 48.0352 11.0887 47.812 11.0887C47.5887 11.0887 47.368 11.0419 47.1639 10.9516C46.9597 10.8612 46.7768 10.729 46.6268 10.5637C46.4768 10.3984 46.363 10.2036 46.2928 9.9917C46.2226 9.77983 46.1975 9.55558 46.2191 9.33343ZM48.7189 9.33343C48.7189 8.60135 48.39 8.17325 47.8129 8.17325C47.2335 8.17325 46.9076 8.60135 46.9076 9.33343C46.9076 10.0714 47.2336 10.4962 47.8129 10.4962C48.39 10.4961 48.7189 10.0684 48.7189 9.33343Z" fill="white"/>
<path d="M50.1064 10.0684C50.1064 9.46048 50.5591 9.11001 51.3625 9.0602L52.2773 9.00748V8.71596C52.2773 8.35926 52.0415 8.15788 51.586 8.15788C51.2139 8.15788 50.956 8.29445 50.8821 8.53325H50.2368C50.3049 7.95313 50.8506 7.58105 51.6167 7.58105C52.4634 7.58105 52.9409 8.00256 52.9409 8.71596V11.0235H52.2993V10.5489H52.2466C52.1395 10.7191 51.9892 10.8579 51.811 10.951C51.6328 11.0442 51.433 11.0884 51.2322 11.0791C51.0904 11.0938 50.9471 11.0788 50.8115 11.0347C50.676 10.9907 50.5511 10.9187 50.4451 10.8235C50.339 10.7283 50.254 10.6119 50.1958 10.4818C50.1374 10.3518 50.107 10.2109 50.1064 10.0684ZM52.2773 9.77983V9.49746L51.4526 9.55018C50.9875 9.58131 50.7766 9.73956 50.7766 10.0372C50.7766 10.3412 51.0403 10.5181 51.4028 10.5181C51.5091 10.5289 51.6164 10.5181 51.7184 10.4866C51.8204 10.455 51.915 10.4032 51.9966 10.3343C52.0782 10.2655 52.1451 10.1809 52.1933 10.0856C52.2415 9.99036 52.2701 9.88633 52.2773 9.77983Z" fill="white"/>
<path d="M53.8169 9.33367C53.8169 8.26649 54.3654 7.59044 55.2187 7.59044C55.4298 7.58077 55.6392 7.63132 55.8226 7.73624C56.0061 7.84117 56.1558 7.99612 56.2544 8.18294H56.3042V6.32812H56.9706V11.0237H56.332V10.4901H56.2793C56.1731 10.6757 56.0181 10.8287 55.8312 10.9326C55.6442 11.0365 55.4325 11.0872 55.2187 11.0794C54.3596 11.0794 53.8169 10.4033 53.8169 9.33367ZM54.5054 9.33367C54.5054 10.0499 54.843 10.4809 55.4077 10.4809C55.9695 10.4809 56.3166 10.0437 56.3166 9.33659C56.3166 8.63272 55.9658 8.18924 55.4077 8.18924C54.8466 8.18924 54.5054 8.62319 54.5054 9.33367Z" fill="white"/>
<path d="M59.7283 9.33335C59.707 9.11135 59.7324 8.88748 59.8028 8.6759C59.8732 8.46433 59.987 8.26986 60.1369 8.10486C60.2869 7.93986 60.4697 7.80808 60.6736 7.71785C60.8775 7.62763 61.098 7.58105 61.3209 7.58105C61.5439 7.58105 61.7644 7.62763 61.9682 7.71785C62.1721 7.80808 62.3549 7.93986 62.5048 8.10486C62.6548 8.26986 62.7686 8.46433 62.839 8.6759C62.9094 8.88748 62.9348 9.11135 62.9136 9.33335C62.9352 9.5555 62.9101 9.77975 62.8399 9.99163C62.7697 10.2035 62.656 10.3984 62.506 10.5637C62.356 10.729 62.173 10.8611 61.9689 10.9515C61.7649 11.0419 61.5442 11.0886 61.3209 11.0886C61.0977 11.0886 60.877 11.0419 60.6728 10.9515C60.4687 10.8611 60.2858 10.729 60.1358 10.5637C59.9858 10.3984 59.8721 10.2035 59.8019 9.99163C59.7317 9.77975 59.7066 9.5555 59.7283 9.33335ZM62.228 9.33335C62.228 8.60128 61.8991 8.17318 61.322 8.17318C60.7426 8.17318 60.4168 8.60128 60.4168 9.33335C60.4168 10.0713 60.7427 10.4961 61.322 10.4961C61.8991 10.496 62.228 10.0683 62.228 9.33335Z" fill="white"/>
<path d="M63.8078 7.64564H64.4494V8.18219H64.4992C64.5837 7.98944 64.7263 7.82796 64.9069 7.72011C65.0875 7.61226 65.2974 7.56344 65.5071 7.58046C65.6714 7.56809 65.8364 7.59292 65.9899 7.65299C66.1433 7.71307 66.2812 7.80689 66.3935 7.92749C66.5058 8.04816 66.5895 8.19247 66.6384 8.34982C66.6873 8.50724 66.7001 8.67359 66.676 8.83656V11.0228H66.0095V9.00397C66.0095 8.46119 65.7736 8.19134 65.2807 8.19134C65.1692 8.18609 65.0578 8.20514 64.9542 8.24699C64.8507 8.28884 64.7575 8.35259 64.6809 8.43389C64.6042 8.51519 64.5462 8.61209 64.5105 8.71792C64.4748 8.82382 64.4625 8.93609 64.4743 9.04717V11.0229H63.8078V7.64564Z" fill="white"/>
<path d="M70.4421 6.80566V7.66183H71.1738V8.22328H70.4421V9.95983C70.4421 10.3136 70.5879 10.4685 70.9197 10.4685C71.0046 10.4683 71.0895 10.4631 71.1738 10.4531V11.0083C71.0541 11.0297 70.9329 11.0411 70.8112 11.0424C70.0701 11.0424 69.7749 10.7816 69.7749 10.1305V8.22321H69.2388V7.66183H69.7749V6.80566H70.4421Z" fill="white"/>
<path d="M72.0842 6.32812H72.7449V8.18924H72.7976C72.8862 7.99469 73.0326 7.83224 73.2169 7.72402C73.4012 7.61579 73.6144 7.56697 73.8274 7.58422C73.9908 7.57537 74.1542 7.60267 74.306 7.66417C74.4577 7.72567 74.594 7.81994 74.705 7.94017C74.8161 8.06047 74.8993 8.20372 74.9486 8.35987C74.998 8.51594 75.012 8.68102 74.9905 8.84324V11.0237H74.3233V9.00772C74.3233 8.46824 74.072 8.19509 73.6011 8.19509C73.4866 8.18564 73.3713 8.20139 73.2635 8.24122C73.1557 8.28097 73.0578 8.34389 72.9768 8.42542C72.8959 8.50694 72.8336 8.60527 72.7946 8.71334C72.7556 8.82142 72.7406 8.93677 72.7508 9.05129V11.0236H72.0843L72.0842 6.32812Z" fill="white"/>
<path d="M78.8768 10.1116C78.786 10.4203 78.5903 10.6873 78.3225 10.8659C78.0548 11.0445 77.733 11.1234 77.4135 11.0887C77.1908 11.0946 76.9695 11.052 76.7655 10.9638C76.5608 10.8756 76.3785 10.7441 76.23 10.5783C76.0815 10.4124 75.9705 10.2162 75.906 10.0034C75.8408 9.79046 75.8228 9.56598 75.8535 9.34556C75.8235 9.12438 75.8423 8.89939 75.9068 8.68594C75.9713 8.47241 76.0815 8.27531 76.2293 8.10806C76.377 7.94074 76.5585 7.80709 76.7625 7.71619C76.9665 7.62529 77.187 7.57923 77.4105 7.58111C78.3503 7.58111 78.9173 8.22311 78.9173 9.28361V9.51618H76.5323V9.55353C76.5218 9.67751 76.5375 9.80223 76.578 9.91976C76.6185 10.0374 76.683 10.1451 76.7678 10.2363C76.8525 10.3273 76.9553 10.3997 77.07 10.4487C77.184 10.4978 77.307 10.5225 77.4315 10.521C77.5913 10.5402 77.7525 10.5115 77.8958 10.4385C78.039 10.3656 78.1568 10.2519 78.2348 10.1116H78.8768ZM76.5323 9.02328H78.2378C78.2468 8.90988 78.231 8.79604 78.1928 8.68901C78.1545 8.58199 78.0945 8.48411 78.0158 8.40176C77.9378 8.31933 77.8433 8.25423 77.7383 8.21058C77.6333 8.16701 77.52 8.14578 77.4068 8.14841C77.2913 8.14691 77.1773 8.16858 77.07 8.21201C76.9635 8.25551 76.8668 8.31986 76.785 8.40146C76.7033 8.48299 76.6395 8.57996 76.596 8.68676C76.5525 8.79356 76.5308 8.90801 76.5323 9.02328Z" fill="white"/>
</g>
<defs>
<clipPath id="clip0_240_31962">
<rect width="90.75" height="30" fill="white"/>
</clipPath>
</defs>
</svg>
