<svg width="15" height="25" viewBox="0 0 15 25" fill="none" xmlns="http://www.w3.org/2000/svg">
<path d="M8.32629 23.7546L13.9151 19.162C14.458 18.6896 14.458 17.9286 13.8831 17.4824C13.3083 17.0363 12.4141 17.0363 11.8712 17.4824L8.7734 20.028L8.7734 2.03142C8.7734 1.37533 8.10274 0.850464 7.30434 0.850464C6.50595 0.850464 5.86723 1.37533 5.86723 2.03142L5.86723 20.028L2.76944 17.4824C2.19459 17.0363 1.26845 17.0363 0.725542 17.5087C0.182632 17.981 0.182632 18.7159 0.725542 19.162L6.31433 23.7546C6.85724 24.227 7.75145 24.2795 8.32629 23.8333C8.32629 23.8071 8.35823 23.8071 8.32629 23.7546Z" fill="white"/>
</svg>
