<svg width="20" height="20" viewBox="0 0 20 20" fill="none" xmlns="http://www.w3.org/2000/svg">
<g clip-path="url(#clip0_240_31927)">
<mask id="mask0_240_31927" style="mask-type:luminance" maskUnits="userSpaceOnUse" x="0" y="0" width="20" height="20">
<path d="M19.1609 0.838867H0V19.9997H19.1609V0.838867Z" fill="white"/>
</mask>
<g mask="url(#mask0_240_31927)">
<path d="M9.58043 0.838867C4.28936 0.838867 0 5.12822 0 10.4194C0 14.9121 3.09334 18.6822 7.26619 19.7177V13.3471H5.2907V10.4194H7.26619V9.15779C7.26619 5.89696 8.742 4.38555 11.9434 4.38555C12.5503 4.38555 13.5977 4.50473 14.0262 4.62352V7.27731C13.8001 7.25355 13.4073 7.24167 12.9194 7.24167C11.3486 7.24167 10.7416 7.83681 10.7416 9.38387V10.4194H13.871L13.3333 13.3471H10.7416V19.9296C15.4855 19.3567 19.1613 15.3176 19.1613 10.4194C19.1609 5.12822 14.8716 0.838867 9.58043 0.838867Z" fill="white"/>
</g>
</g>
<defs>
<clipPath id="clip0_240_31927">
<rect width="20" height="20" fill="white"/>
</clipPath>
</defs>
</svg>
