<svg width="103" height="30" viewBox="0 0 103 30" fill="none" xmlns="http://www.w3.org/2000/svg">
<g clip-path="url(#clip0_240_31988)">
<path d="M96.3056 0.375H7.0556C3.949 0.375 1.4306 2.8934 1.4306 6V24C1.4306 27.1066 3.949 29.625 7.0556 29.625H96.3056C99.4122 29.625 101.931 27.1066 101.931 24V6C101.931 2.8934 99.4122 0.375 96.3056 0.375Z" fill="black"/>
<path d="M96.3056 0.375H7.0556C3.949 0.375 1.4306 2.8934 1.4306 6V24C1.4306 27.1066 3.949 29.625 7.0556 29.625H96.3056C99.4122 29.625 101.931 27.1066 101.931 24V6C101.931 2.8934 99.4122 0.375 96.3056 0.375Z" stroke="#A6A6A6"/>
<path d="M52.1583 16.3139C50.3943 16.3139 48.9566 17.6549 48.9566 19.5037C48.9566 21.3404 50.3943 22.6934 52.1583 22.6934C53.9223 22.6934 55.3601 21.3404 55.3601 19.5037C55.3601 17.6549 53.9223 16.3139 52.1583 16.3139ZM52.1583 21.4372C51.1916 21.4372 50.3576 20.6399 50.3576 19.5037C50.3576 18.3554 51.1916 17.5702 52.1583 17.5702C53.1251 17.5702 53.9583 18.3554 53.9583 19.5037C53.9583 20.6392 53.1251 21.4372 52.1583 21.4372ZM45.1728 16.3139C43.4088 16.3139 41.9711 17.6549 41.9711 19.5037C41.9711 21.3404 43.4088 22.6934 45.1728 22.6934C46.9368 22.6934 48.3746 21.3404 48.3746 19.5037C48.3753 17.6549 46.9368 16.3139 45.1728 16.3139ZM45.1728 21.4372C44.2061 21.4372 43.3728 20.6399 43.3728 19.5037C43.3728 18.3554 44.2068 17.5702 45.1728 17.5702C46.1396 17.5702 46.9728 18.3554 46.9728 19.5037C46.9736 20.6392 46.1396 21.4372 45.1728 21.4372ZM36.8643 18.6457H40.1028C40.0061 19.4069 39.7526 19.9627 39.3656 20.3497C38.8946 20.8207 38.1573 21.3404 36.8643 21.3404C34.8708 21.3404 33.3123 19.7332 33.3123 17.7397C33.3123 15.7462 34.8708 14.1389 36.8643 14.1389C37.9398 14.1389 38.7251 14.5619 39.3048 15.1057L40.2596 14.1509C39.4503 13.3777 38.3748 12.7852 36.8643 12.7852C34.1336 12.7852 31.8378 15.0082 31.8378 17.7389C31.8378 20.4697 34.1336 22.6927 36.8643 22.6927C38.3381 22.6927 39.4503 22.2097 40.3203 21.3029C41.2143 20.4089 41.4926 19.1519 41.4926 18.1372C41.4926 17.8229 41.4686 17.5327 41.4198 17.2912H36.8643V18.6457ZM70.8453 18.3434C70.5798 17.6302 69.7698 16.3132 68.1146 16.3132C66.4713 16.3132 65.1063 17.6062 65.1063 19.5029C65.1063 21.2909 66.4593 22.6927 68.2721 22.6927C69.7338 22.6927 70.5798 21.7987 70.9301 21.2789L69.8426 20.5537C69.4803 21.0854 68.9846 21.4357 68.2721 21.4357C67.5588 21.4357 67.0518 21.1094 66.7256 20.4689L70.9908 18.7049L70.8453 18.3434ZM66.4953 19.4069C66.4593 18.1747 67.4501 17.5462 68.1626 17.5462C68.7183 17.5462 69.1893 17.8237 69.3468 18.2227L66.4953 19.4069ZM63.0273 22.4999H64.4291V13.1242H63.0273V22.4999ZM60.7316 17.0264H60.6836C60.3693 16.6522 59.7656 16.3132 59.0043 16.3132C57.4091 16.3132 55.9473 17.7149 55.9473 19.5149C55.9473 21.3029 57.4091 22.6927 59.0043 22.6927C59.7656 22.6927 60.3693 22.3544 60.6836 21.9674H60.7316V22.4264C60.7316 23.6467 60.0791 24.2992 59.0276 24.2992C58.1696 24.2992 57.6378 23.6827 57.4203 23.1637L56.2001 23.6714C56.5503 24.5174 57.4811 25.5562 59.0276 25.5562C60.6708 25.5562 62.0606 24.5894 62.0606 22.2337V16.5067H60.7316V17.0264ZM59.1251 21.4372C58.1583 21.4372 57.3491 20.6279 57.3491 19.5157C57.3491 18.3922 58.1583 17.5702 59.1251 17.5702C60.0798 17.5702 60.8283 18.3914 60.8283 19.5157C60.8283 20.6272 60.0798 21.4372 59.1251 21.4372ZM77.4105 13.1242H74.0576V22.4999H75.4563V18.9479H77.4098C78.9608 18.9479 80.4855 17.8252 80.4855 16.0364C80.4855 14.2477 78.9615 13.1242 77.4105 13.1242ZM77.4465 17.6429H75.4563V14.4292H77.4465C78.4928 14.4292 79.0868 15.2954 79.0868 16.0364C79.0868 16.7624 78.4928 17.6429 77.4465 17.6429ZM86.0955 16.2967C85.0823 16.2967 84.033 16.7429 83.5988 17.7322L84.8415 18.2512C85.107 17.7322 85.6013 17.5634 86.1203 17.5634C86.844 17.5634 87.5798 17.9977 87.5918 18.7694V18.8662C87.3383 18.7214 86.7953 18.5039 86.1323 18.5039C84.7935 18.5039 83.43 19.2397 83.43 20.6152C83.43 21.8699 84.528 22.6777 85.758 22.6777C86.6993 22.6777 87.2175 22.2554 87.543 21.7612H87.591V22.4849H88.9418V18.8902C88.9418 17.2252 87.6998 16.2967 86.0955 16.2967ZM85.926 21.4349C85.4678 21.4349 84.828 21.2054 84.828 20.6392C84.828 19.9154 85.6245 19.6379 86.3115 19.6379C86.9265 19.6379 87.216 19.7707 87.5903 19.9514C87.4823 20.8199 86.7345 21.4349 85.926 21.4349ZM93.8633 16.5014L92.259 20.5664H92.211L90.5468 16.5014H89.0393L91.536 22.1827L90.1125 25.3432H91.572L95.4203 16.5014H93.8633ZM81.258 22.4999H82.6575V13.1242H81.258V22.4999Z" fill="white"/>
<path d="M36.5875 7.34316H34.4065V7.88391H36.0408C35.9965 8.32341 35.8203 8.66916 35.5255 8.92041C35.23 9.17166 34.8528 9.29766 34.4065 9.29766C33.916 9.29766 33.5013 9.12816 33.1623 8.78841C32.8293 8.44266 32.659 8.01591 32.659 7.49991C32.659 6.98466 32.8293 6.55716 33.1623 6.21141C33.5013 5.87241 33.916 5.70291 34.4065 5.70291C34.6578 5.70291 34.897 5.74641 35.1168 5.84091C35.3365 5.93541 35.5128 6.06741 35.6508 6.23691L36.0655 5.82216C35.8773 5.60841 35.638 5.44491 35.3433 5.32566C35.0478 5.20641 34.7395 5.14941 34.4065 5.14941C33.7525 5.14941 33.1998 5.37591 32.7475 5.82816C32.2945 6.28116 32.0688 6.83991 32.0688 7.49991C32.0688 8.15991 32.2945 8.71941 32.7475 9.17166C33.1998 9.62466 33.7525 9.85041 34.4065 9.85041C35.0913 9.85041 35.638 9.63066 36.0595 9.18441C36.43 8.81391 36.619 8.31066 36.619 7.68216C36.619 7.57566 36.6063 7.46241 36.5875 7.34316Z" fill="white"/>
<path d="M37.4486 5.25V9.74999H40.0759V9.19724H38.0269V7.77074H39.8741V7.23H38.0269V5.8035H40.0759V5.25H37.4486Z" fill="white"/>
<path d="M43.7703 5.8035V5.25H40.678V5.8035H41.935V9.74999H42.5133V5.8035H43.7703Z" fill="white"/>
<path d="M46.5866 5.25H46.0083V9.74999H46.5866V5.25Z" fill="white"/>
<path d="M50.4078 5.8035V5.25H47.3156V5.8035H48.5726V9.74999H49.1508V5.8035H50.4078Z" fill="white"/>
<path d="M56.2593 5.83491C55.8131 5.37591 55.2663 5.14941 54.6123 5.14941C53.9591 5.14941 53.4116 5.37591 52.9653 5.82816C52.5191 6.27441 52.2993 6.83391 52.2993 7.49991C52.2993 8.16666 52.5191 8.72541 52.9653 9.17166C53.4116 9.62466 53.9591 9.85041 54.6123 9.85041C55.2596 9.85041 55.8131 9.62466 56.2593 9.17166C56.7056 8.72541 56.9253 8.16666 56.9253 7.49991C56.9253 6.83991 56.7056 6.28116 56.2593 5.83491ZM53.3808 6.21141C53.7138 5.87241 54.1218 5.70291 54.6123 5.70291C55.1028 5.70291 55.5108 5.87241 55.8378 6.21141C56.1708 6.54516 56.3343 6.97866 56.3343 7.49991C56.3343 8.02191 56.1708 8.45541 55.8378 8.78841C55.5108 9.12816 55.1028 9.29766 54.6123 9.29766C54.1218 9.29766 53.7138 9.12816 53.3808 8.78841C53.0538 8.44941 52.8903 8.02191 52.8903 7.49991C52.8903 6.97866 53.0538 6.55116 53.3808 6.21141Z" fill="white"/>
<path d="M58.3143 6.94725L58.2896 6.0795H58.3143L60.6026 9.74999H61.2056V5.25H60.6273V7.88399L60.6528 8.75099H60.6273L58.4403 5.25H57.7368V9.74999H58.3143V6.94725Z" fill="white"/>
<path d="M16.5936 14.5684L8.60834 23.0434C8.60909 23.0449 8.60909 23.0464 8.60984 23.0479C8.85434 23.9689 9.69509 24.6461 10.6926 24.6461C11.0916 24.6461 11.4658 24.5381 11.7868 24.3491L11.8123 24.3341L20.8003 19.1479L16.5936 14.5684Z" fill="#EB4335"/>
<path d="M24.6728 13.1254L24.6653 13.1201L20.7848 10.8701L16.413 14.7604L20.7998 19.1464L24.66 16.9196C25.3365 16.5544 25.7955 15.8411 25.7955 15.0184C25.7955 14.2016 25.3425 13.4914 24.6728 13.1254Z" fill="#FABC13"/>
<path d="M8.60859 6.95801C8.56059 7.13501 8.5351 7.32026 8.5351 7.51302V22.4883C8.5351 22.681 8.55962 22.867 8.60837 23.0433L16.8683 14.785L8.60859 6.95801Z" fill="#547DBF"/>
<path d="M16.6521 15.0005L20.7853 10.8687L11.8071 5.66373C11.4808 5.46798 11.1006 5.35547 10.6926 5.35547C9.69509 5.35547 8.85359 6.03422 8.60834 6.95598L8.60856 6.9582L16.6521 15.0005Z" fill="#30A851"/>
</g>
<defs>
<clipPath id="clip0_240_31988">
<rect width="102" height="30" fill="white" transform="translate(0.75)"/>
</clipPath>
</defs>
</svg>
