<svg width="20" height="20" viewBox="0 0 20 20" fill="none" xmlns="http://www.w3.org/2000/svg">
<mask id="mask0_240_31955" style="mask-type:luminance" maskUnits="userSpaceOnUse" x="0" y="0" width="20" height="20">
<path d="M20 0.838867H0.839111V19.9997H20V0.838867Z" fill="white"/>
</mask>
<g mask="url(#mask0_240_31955)">
<path d="M14.4694 0.838867H11.2402V13.8905C11.2402 15.4456 9.9982 16.723 8.45264 16.723C6.90705 16.723 5.66508 15.4456 5.66508 13.8905C5.66508 12.3632 6.87946 11.1135 8.36986 11.058V7.78123C5.08548 7.83674 2.43591 10.5304 2.43591 13.8905C2.43591 17.2784 5.14068 19.9998 8.48025 19.9998C11.8198 19.9998 14.5245 17.2506 14.5245 13.8905V7.19805C15.739 8.08669 17.2293 8.61431 18.8025 8.64209V5.36528C16.3738 5.28198 14.4694 3.28258 14.4694 0.838867Z" fill="white"/>
</g>
</svg>
