<svg width="20" height="20" viewBox="0 0 20 20" fill="none" xmlns="http://www.w3.org/2000/svg">
<g clip-path="url(#clip0_240_31935)">
<mask id="mask0_240_31935" style="mask-type:luminance" maskUnits="userSpaceOnUse" x="0" y="0" width="20" height="20">
<path d="M19.4965 0.838867H0.335632V19.9997H19.4965V0.838867Z" fill="white"/>
</mask>
<g mask="url(#mask0_240_31935)">
<path d="M9.91608 2.5641C12.4758 2.5641 12.7789 2.57532 13.7856 2.62023C14.7213 2.66139 15.2265 2.81858 15.5633 2.94956C16.0087 3.12171 16.3305 3.33128 16.6636 3.66435C17.0003 4.00116 17.2062 4.31926 17.3783 4.7646C17.5093 5.10142 17.6665 5.61038 17.7076 6.54223C17.7526 7.55266 17.7638 7.85579 17.7638 10.4119C17.7638 12.9716 17.7526 13.2747 17.7076 14.2814C17.6665 15.217 17.5093 15.7222 17.3783 16.0591C17.2062 16.5044 16.9966 16.8262 16.6636 17.1594C16.3268 17.4961 16.0087 17.702 15.5633 17.8741C15.2265 18.0051 14.7176 18.1622 13.7856 18.2034C12.7752 18.2483 12.4721 18.2595 9.91608 18.2595C7.3563 18.2595 7.05317 18.2483 6.04648 18.2034C5.11089 18.1622 4.60567 18.0051 4.26885 17.8741C3.82351 17.702 3.50167 17.4924 3.1686 17.1594C2.83179 16.8225 2.62596 16.5044 2.45381 16.0591C2.32283 15.7222 2.16564 15.2133 2.12448 14.2814C2.07957 13.271 2.06835 12.9679 2.06835 10.4119C2.06835 7.85205 2.07957 7.54892 2.12448 6.54223C2.16564 5.60664 2.32283 5.10142 2.45381 4.7646C2.62596 4.31926 2.83553 3.99742 3.1686 3.66435C3.50541 3.32754 3.82351 3.12171 4.26885 2.94956C4.60567 2.81858 5.11463 2.66139 6.04648 2.62023C7.05317 2.57532 7.3563 2.5641 9.91608 2.5641ZM9.91608 0.838867C7.31514 0.838867 6.98955 0.850094 5.96789 0.895003C4.94997 0.939907 4.25014 1.10458 3.64388 1.34034C3.01142 1.58734 2.47626 1.91292 1.94484 2.44808C1.40969 2.9795 1.08411 3.51465 0.837109 4.14338C0.60134 4.75338 0.436677 5.44945 0.391768 6.46738C0.346859 7.49278 0.335632 7.81838 0.335632 10.4194C0.335632 13.0202 0.346859 13.3459 0.391768 14.3675C0.436677 15.3854 0.60134 16.0853 0.837109 16.6915C1.08411 17.324 1.40969 17.8591 1.94484 18.3906C2.47626 18.922 3.01142 19.2513 3.64014 19.4946C4.25014 19.7303 4.94623 19.895 5.96415 19.9399C6.98581 19.9848 7.31139 19.996 9.91234 19.996C12.5133 19.996 12.8389 19.9848 13.8605 19.9399C14.8784 19.895 15.5783 19.7303 16.1845 19.4946C16.8133 19.2513 17.3484 18.922 17.8798 18.3906C18.4112 17.8591 18.7406 17.324 18.9838 16.6953C19.2196 16.0853 19.3843 15.3892 19.4291 14.3713C19.4741 13.3496 19.4853 13.024 19.4853 10.4231C19.4853 7.82212 19.4741 7.49653 19.4291 6.47486C19.3843 5.45694 19.2196 4.75712 18.9838 4.15086C18.7481 3.51466 18.4225 2.9795 17.8873 2.44808C17.3559 1.91666 16.8208 1.58734 16.192 1.34409C15.582 1.10832 14.8859 0.943655 13.868 0.898742C12.8426 0.850094 12.517 0.838867 9.91608 0.838867Z" fill="white"/>
<path d="M9.91606 5.49805C7.19912 5.49805 4.99487 7.7023 4.99487 10.4192C4.99487 13.1362 7.19912 15.3404 9.91606 15.3404C12.633 15.3404 14.8373 13.1362 14.8373 10.4192C14.8373 7.7023 12.633 5.49805 9.91606 5.49805ZM9.91606 13.6115C8.15343 13.6115 6.72385 12.1819 6.72385 10.4192C6.72385 8.6566 8.15343 7.22702 9.91606 7.22702C11.6788 7.22702 13.1083 8.6566 13.1083 10.4192C13.1083 12.1819 11.6788 13.6115 9.91606 13.6115Z" fill="white"/>
<path d="M16.1808 5.3032C16.1808 5.93941 15.6644 6.45211 15.0319 6.45211C14.3958 6.45211 13.8831 5.93566 13.8831 5.3032C13.8831 4.667 14.3995 4.1543 15.0319 4.1543C15.6644 4.1543 16.1808 4.67075 16.1808 5.3032Z" fill="white"/>
</g>
</g>
<defs>
<clipPath id="clip0_240_31935">
<rect width="20" height="20" fill="white"/>
</clipPath>
</defs>
</svg>
