<svg width="20" height="20" viewBox="0 0 20 20" fill="none" xmlns="http://www.w3.org/2000/svg">
<g clip-path="url(#clip0_240_31943)">
<mask id="mask0_240_31943" style="mask-type:luminance" maskUnits="userSpaceOnUse" x="0" y="0" width="20" height="20">
<path d="M19.6643 0.838867H0.503479V19.9997H19.6643V0.838867Z" fill="white"/>
</mask>
<g mask="url(#mask0_240_31943)">
<path d="M18.246 0.838867H1.91809C1.13594 0.838867 0.503479 1.45636 0.503479 2.2198V18.6151C0.503479 19.3786 1.13594 19.9998 1.91809 19.9998H18.246C19.0282 19.9998 19.6644 19.3786 19.6644 18.6188V2.2198C19.6644 1.45636 19.0282 0.838867 18.246 0.838867ZM6.18813 17.1668H3.34393V8.02046H6.18813V17.1668ZM4.76603 6.77425C3.8529 6.77425 3.11564 6.03701 3.11564 5.12761C3.11564 4.21822 3.8529 3.48098 4.76603 3.48098C5.67543 3.48098 6.41267 4.21822 6.41267 5.12761C6.41267 6.03326 5.67543 6.77425 4.76603 6.77425ZM16.8314 17.1668H13.991V12.7208C13.991 11.6618 13.9723 10.2958 12.5127 10.2958C11.0345 10.2958 10.8099 11.4522 10.8099 12.646V17.1668H7.97324V8.02046H10.6977V9.27039H10.7351C11.1131 8.55187 12.0411 7.79218 13.4221 7.79218C16.3 7.79218 16.8314 9.68579 16.8314 12.1483V17.1668Z" fill="white"/>
</g>
</g>
<defs>
<clipPath id="clip0_240_31943">
<rect width="20" height="20" fill="white"/>
</clipPath>
</defs>
</svg>
