<svg width="20" height="20" viewBox="0 0 20 20" fill="none" xmlns="http://www.w3.org/2000/svg">
<mask id="mask0_240_31949" style="mask-type:luminance" maskUnits="userSpaceOnUse" x="0" y="0" width="20" height="20">
<path d="M19.8321 0.838867H0.671265V19.9997H19.8321V0.838867Z" fill="white"/>
</mask>
<g mask="url(#mask0_240_31949)">
<path d="M19.6413 6.5875C19.6413 6.5875 19.4542 5.26644 18.8779 4.68638C18.1481 3.92294 17.3322 3.91919 16.9581 3.87429C14.2785 3.67969 10.2555 3.67969 10.2555 3.67969H10.248C10.248 3.67969 6.22493 3.67969 3.5454 3.87429C3.17117 3.91919 2.35533 3.92294 1.62557 4.68638C1.04924 5.26644 0.865867 6.5875 0.865867 6.5875C0.865867 6.5875 0.671265 8.14058 0.671265 9.6899V11.142C0.671265 12.6913 0.862125 14.2443 0.862125 14.2443C0.862125 14.2443 1.04924 15.5655 1.62183 16.1455C2.35158 16.9089 3.30963 16.8828 3.73626 16.965C5.27063 17.111 10.2517 17.1559 10.2517 17.1559C10.2517 17.1559 14.2785 17.1484 16.9581 16.9576C17.3322 16.9127 18.1481 16.9089 18.8779 16.1455C19.4542 15.5655 19.6413 14.2443 19.6413 14.2443C19.6413 14.2443 19.8322 12.695 19.8322 11.142V9.6899C19.8322 8.14058 19.6413 6.5875 19.6413 6.5875ZM8.272 12.9046V7.51935L13.4477 10.2213L8.272 12.9046Z" fill="white"/>
</g>
</svg>
