<svg width="24" height="25" viewBox="0 0 24 25" fill="none" xmlns="http://www.w3.org/2000/svg">
<g clip-path="url(#clip0_266_1775)">
<path d="M12.0003 0.5C18.6276 0.5 24.0003 5.87262 24.0003 12.5C24.0003 19.1274 18.6276 24.5 12.0003 24.5C12.0003 23.9783 10.4351 12.5 10.4351 12.5L12.0003 0.5Z" fill="#F0F0F0"/>
<path d="M12 24.5C5.37262 24.5 0 19.1274 0 12.5C0 5.87262 5.37262 0.5 12 0.5" fill="#039855"/>
<path d="M14.5779 10.1987L13.5933 11.5555L11.9988 11.0384L12.9849 12.394L12.0005 13.7508L13.5944 13.2319L14.5806 14.5875L14.5795 12.9112L16.1735 12.3922L14.579 11.8751L14.5779 10.1987Z" fill="#D80027"/>
<path d="M12.9951 15.892C11.1221 15.892 9.60377 14.3737 9.60377 12.5007C9.60377 10.6278 11.1221 9.10941 12.9951 9.10941C13.5791 9.10941 14.1286 9.25706 14.6083 9.51703C13.8557 8.78105 12.8265 8.32678 11.6907 8.32678C9.38552 8.32678 7.51685 10.1955 7.51685 12.5007C7.51685 14.8058 9.38557 16.6746 11.6907 16.6746C12.8265 16.6746 13.8557 16.2203 14.6083 15.4843C14.1286 15.7444 13.5791 15.892 12.9951 15.892Z" fill="#D80027"/>
</g>
<defs>
<clipPath id="clip0_266_1775">
<rect width="24" height="24" fill="white" transform="translate(0 0.5)"/>
</clipPath>
</defs>
</svg>
