<svg width="24" height="25" viewBox="0 0 24 25" fill="none" xmlns="http://www.w3.org/2000/svg">
<g clip-path="url(#clip0_142_5847)">
<path d="M12 24.5C18.6274 24.5 24 19.1274 24 12.5C24 5.87258 18.6274 0.5 12 0.5C5.37258 0.5 0 5.87258 0 12.5C0 19.1274 5.37258 24.5 12 24.5Z" fill="#F0F0F0"/>
<path d="M23.9999 12.4999C23.9999 7.34037 20.7434 2.94185 16.1738 1.24634V23.7536C20.7434 22.058 23.9999 17.6595 23.9999 12.4999Z" fill="#D80027"/>
<path d="M0.000488281 12.5008C0.000488281 17.6604 3.25704 22.0589 7.8266 23.7544V1.24719C3.25704 2.94271 0.000488281 7.34122 0.000488281 12.5008Z" fill="#0052B4"/>
</g>
<defs>
<clipPath id="clip0_142_5847">
<rect width="24" height="24" fill="white" transform="translate(0 0.5)"/>
</clipPath>
</defs>
</svg>
