<svg width="24" height="25" viewBox="0 0 24 25" fill="none" xmlns="http://www.w3.org/2000/svg">
<g clip-path="url(#clip0_266_2549)">
<path d="M12 24.5C18.6274 24.5 24 19.1274 24 12.5C24 5.87258 18.6274 0.5 12 0.5C5.37258 0.5 0 5.87258 0 12.5C0 19.1274 5.37258 24.5 12 24.5Z" fill="#F0F0F0"/>
<path d="M11.4778 12.5H23.9995C23.9995 11.4169 23.8551 10.3676 23.5861 9.36951H11.4778V12.5Z" fill="#D80027"/>
<path d="M11.4778 6.23848H22.2382C21.5036 5.0398 20.5644 3.98028 19.4693 3.10803H11.4778V6.23848Z" fill="#D80027"/>
<path d="M11.9996 24.4999C14.8238 24.4999 17.4196 23.5238 19.4694 21.8912H4.52979C6.57963 23.5238 9.17543 24.4999 11.9996 24.4999Z" fill="#D80027"/>
<path d="M1.76098 18.7598H22.2384C22.8281 17.7975 23.2855 16.7457 23.5863 15.6294H0.413086C0.713883 16.7457 1.17124 17.7975 1.76098 18.7598Z" fill="#D80027"/>
<path d="M5.55863 2.37397H6.65217L5.63498 3.11295L6.02353 4.30869L5.00639 3.5697L3.98925 4.30869L4.32487 3.2757C3.42928 4.02172 2.64431 4.89575 1.99744 5.86963H2.34783L1.70034 6.34002C1.59947 6.5083 1.50272 6.67925 1.41 6.85273L1.71919 7.80434L1.14234 7.38523C0.998953 7.68903 0.867797 7.99967 0.749906 8.31678L1.09055 9.36528H2.34783L1.33064 10.1043L1.71919 11.3L0.702047 10.561L0.0927656 11.0037C0.0317812 11.4939 0 11.9932 0 12.5H12C12 5.87262 12 5.09131 12 0.5C9.62944 0.5 7.41961 1.18766 5.55863 2.37397ZM6.02353 11.3L5.00639 10.561L3.98925 11.3L4.3778 10.1043L3.36061 9.36528H4.61789L5.00639 8.16955L5.39489 9.36528H6.65217L5.63498 10.1043L6.02353 11.3ZM5.63498 6.60861L6.02353 7.80434L5.00639 7.06536L3.98925 7.80434L4.3778 6.60861L3.36061 5.86963H4.61789L5.00639 4.67389L5.39489 5.86963H6.65217L5.63498 6.60861ZM10.3279 11.3L9.31073 10.561L8.29359 11.3L8.68214 10.1043L7.66495 9.36528H8.92223L9.31073 8.16955L9.69923 9.36528H10.9565L9.93933 10.1043L10.3279 11.3ZM9.93933 6.60861L10.3279 7.80434L9.31073 7.06536L8.29359 7.80434L8.68214 6.60861L7.66495 5.86963H8.92223L9.31073 4.67389L9.69923 5.86963H10.9565L9.93933 6.60861ZM9.93933 3.11295L10.3279 4.30869L9.31073 3.5697L8.29359 4.30869L8.68214 3.11295L7.66495 2.37397H8.92223L9.31073 1.17823L9.69923 2.37397H10.9565L9.93933 3.11295Z" fill="#0052B4"/>
</g>
<defs>
<clipPath id="clip0_266_2549">
<rect width="24" height="24" fill="white" transform="translate(0 0.5)"/>
</clipPath>
</defs>
</svg>
